<mxfile host="Electron" modified="2023-08-23T22:25:38.301Z" agent="Mozilla/5.0 (Windows NT 10.0; Win64; x64) AppleWebKit/537.36 (KHTML, like Gecko) draw.io/21.6.5 Chrome/114.0.5735.243 Electron/25.3.1 Safari/537.36" etag="S1tEWrZouaycdnSj8TbF" version="21.6.5" type="device" pages="4">
  <diagram name="New API" id="fMP-62zq0Drh8fqxtAuL">
    <mxGraphModel dx="1703" dy="972" grid="1" gridSize="10" guides="1" tooltips="1" connect="1" arrows="1" fold="1" page="1" pageScale="1" pageWidth="827" pageHeight="1169" math="0" shadow="0">
      <root>
        <mxCell id="0" />
        <mxCell id="1" parent="0" />
        <mxCell id="nEcrmQmEwlzkNigICEiU-2" value="" style="endArrow=none;html=1;rounded=0;endFill=0;startArrow=classic;startFill=1;" parent="1" edge="1">
          <mxGeometry width="50" height="50" relative="1" as="geometry">
            <mxPoint x="477.31" y="220" as="sourcePoint" />
            <mxPoint x="477.31" y="295" as="targetPoint" />
          </mxGeometry>
        </mxCell>
        <mxCell id="FhcBZPqyOB3JHqi98k8j-1" value="Time" style="shape=flexArrow;endArrow=classic;html=1;rounded=0;width=15.161290322580644;endSize=6.688709677419355;labelBackgroundColor=none;strokeColor=#314354;fontColor=#FFFFFF;fillColor=#647687;" parent="1" edge="1">
          <mxGeometry width="50" height="50" relative="1" as="geometry">
            <mxPoint x="120" y="600" as="sourcePoint" />
            <mxPoint x="600" y="600" as="targetPoint" />
          </mxGeometry>
        </mxCell>
        <mxCell id="FhcBZPqyOB3JHqi98k8j-4" value="tags" style="text;html=1;align=center;verticalAlign=middle;resizable=0;points=[];autosize=1;strokeColor=#2D7600;fillColor=#60a917;fontColor=#ffffff;" parent="1" vertex="1">
          <mxGeometry x="69" y="200" width="50" height="30" as="geometry" />
        </mxCell>
        <mxCell id="FhcBZPqyOB3JHqi98k8j-5" value="main" style="text;html=1;align=center;verticalAlign=middle;resizable=0;points=[];autosize=1;strokeColor=#B09500;fillColor=#e3c800;fontColor=#000000;" parent="1" vertex="1">
          <mxGeometry x="69" y="280" width="50" height="30" as="geometry" />
        </mxCell>
        <mxCell id="FhcBZPqyOB3JHqi98k8j-6" value="develop" style="text;html=1;align=center;verticalAlign=middle;resizable=0;points=[];autosize=1;strokeColor=#006EAF;fillColor=#1ba1e2;fontColor=#ffffff;" parent="1" vertex="1">
          <mxGeometry x="49" y="360" width="70" height="30" as="geometry" />
        </mxCell>
        <mxCell id="FhcBZPqyOB3JHqi98k8j-8" value="" style="endArrow=none;html=1;rounded=0;" parent="1" edge="1">
          <mxGeometry width="50" height="50" relative="1" as="geometry">
            <mxPoint x="120" y="200" as="sourcePoint" />
            <mxPoint x="120" y="590" as="targetPoint" />
          </mxGeometry>
        </mxCell>
        <mxCell id="FhcBZPqyOB3JHqi98k8j-9" value="Step 1" style="text;html=1;strokeColor=none;fillColor=none;align=center;verticalAlign=middle;whiteSpace=wrap;rounded=0;" parent="1" vertex="1">
          <mxGeometry x="120" y="276.5" width="45" height="15" as="geometry" />
        </mxCell>
        <mxCell id="FhcBZPqyOB3JHqi98k8j-15" value="" style="endArrow=none;html=1;rounded=0;endFill=0;startArrow=classic;startFill=1;exitX=0;exitY=0;exitDx=0;exitDy=0;" parent="1" source="FhcBZPqyOB3JHqi98k8j-16" edge="1">
          <mxGeometry width="50" height="50" relative="1" as="geometry">
            <mxPoint x="200" y="375" as="sourcePoint" />
            <mxPoint x="160" y="295" as="targetPoint" />
          </mxGeometry>
        </mxCell>
        <mxCell id="FhcBZPqyOB3JHqi98k8j-17" value="Step 2" style="text;html=1;strokeColor=none;fillColor=none;align=center;verticalAlign=middle;whiteSpace=wrap;rounded=0;" parent="1" vertex="1">
          <mxGeometry x="180.68" y="335.5" width="45" height="15" as="geometry" />
        </mxCell>
        <mxCell id="FhcBZPqyOB3JHqi98k8j-20" value="" style="endArrow=none;dashed=1;html=1;rounded=0;fillColor=#e3c800;strokeColor=#B09500;" parent="1" edge="1">
          <mxGeometry width="50" height="50" relative="1" as="geometry">
            <mxPoint x="120" y="294.93" as="sourcePoint" />
            <mxPoint x="600" y="294.93" as="targetPoint" />
          </mxGeometry>
        </mxCell>
        <mxCell id="FhcBZPqyOB3JHqi98k8j-22" value="" style="endArrow=none;html=1;rounded=0;" parent="1" edge="1">
          <mxGeometry width="50" height="50" relative="1" as="geometry">
            <mxPoint x="600" y="210" as="sourcePoint" />
            <mxPoint x="600" y="600" as="targetPoint" />
          </mxGeometry>
        </mxCell>
        <mxCell id="FhcBZPqyOB3JHqi98k8j-24" value="" style="endArrow=none;dashed=1;html=1;rounded=0;fillColor=#1ba1e2;strokeColor=#006EAF;" parent="1" edge="1">
          <mxGeometry width="50" height="50" relative="1" as="geometry">
            <mxPoint x="120" y="374.93" as="sourcePoint" />
            <mxPoint x="600" y="375" as="targetPoint" />
          </mxGeometry>
        </mxCell>
        <mxCell id="FhcBZPqyOB3JHqi98k8j-3" value="" style="ellipse;whiteSpace=wrap;html=1;aspect=fixed;" parent="1" vertex="1">
          <mxGeometry x="155" y="290" width="10" height="10" as="geometry" />
        </mxCell>
        <mxCell id="FhcBZPqyOB3JHqi98k8j-16" value="" style="ellipse;whiteSpace=wrap;html=1;aspect=fixed;" parent="1" vertex="1">
          <mxGeometry x="195" y="370" width="10" height="10" as="geometry" />
        </mxCell>
        <mxCell id="FhcBZPqyOB3JHqi98k8j-29" value="Step 4" style="text;html=1;strokeColor=none;fillColor=none;align=center;verticalAlign=middle;whiteSpace=wrap;rounded=0;" parent="1" vertex="1">
          <mxGeometry x="259.83" y="485" width="45" height="15" as="geometry" />
        </mxCell>
        <mxCell id="FhcBZPqyOB3JHqi98k8j-30" value="&lt;h1&gt;Step 1&lt;/h1&gt;&lt;p&gt;- Repository creation&lt;/p&gt;&lt;p&gt;- Push existing Mule App Template to MAIN branch along with CI/CD script files&lt;/p&gt;&lt;p&gt;- Set up pom.xml&lt;/p&gt;" style="text;html=1;strokeColor=none;fillColor=none;spacing=5;spacingTop=-20;whiteSpace=wrap;overflow=hidden;rounded=0;" parent="1" vertex="1">
          <mxGeometry x="630.29" y="208" width="169.71" height="152" as="geometry" />
        </mxCell>
        <mxCell id="FhcBZPqyOB3JHqi98k8j-31" value="&lt;h1&gt;Step 2&lt;/h1&gt;&lt;p&gt;- Create DEVELOP branch from MAIN branch&lt;/p&gt;" style="text;html=1;strokeColor=none;fillColor=none;spacing=5;spacingTop=-20;whiteSpace=wrap;overflow=hidden;rounded=0;" parent="1" vertex="1">
          <mxGeometry x="629.32" y="360" width="170.68" height="80" as="geometry" />
        </mxCell>
        <mxCell id="FhcBZPqyOB3JHqi98k8j-32" value="&lt;h1&gt;Step 4&lt;/h1&gt;&lt;p&gt;- Commits containing the implementation and unit tests&amp;nbsp;&lt;/p&gt;&lt;p&gt;- Developer can deploy to DEV manually&lt;/p&gt;" style="text;html=1;strokeColor=none;fillColor=none;spacing=5;spacingTop=-20;whiteSpace=wrap;overflow=hidden;rounded=0;" parent="1" vertex="1">
          <mxGeometry x="630" y="555" width="170" height="125" as="geometry" />
        </mxCell>
        <mxCell id="FhcBZPqyOB3JHqi98k8j-33" value="Step 6" style="text;html=1;strokeColor=none;fillColor=none;align=center;verticalAlign=middle;whiteSpace=wrap;rounded=0;" parent="1" vertex="1">
          <mxGeometry x="372.6" y="328.5" width="45" height="15" as="geometry" />
        </mxCell>
        <mxCell id="FhcBZPqyOB3JHqi98k8j-35" value="" style="ellipse;whiteSpace=wrap;html=1;aspect=fixed;" parent="1" vertex="1">
          <mxGeometry x="392.31" y="370" width="10" height="10" as="geometry" />
        </mxCell>
        <mxCell id="FhcBZPqyOB3JHqi98k8j-37" value="" style="ellipse;whiteSpace=wrap;html=1;aspect=fixed;" parent="1" vertex="1">
          <mxGeometry x="472.31" y="290" width="10" height="10" as="geometry" />
        </mxCell>
        <mxCell id="FhcBZPqyOB3JHqi98k8j-38" value="" style="curved=1;endArrow=classic;html=1;rounded=0;entryX=0.5;entryY=0;entryDx=0;entryDy=0;exitX=0.51;exitY=-0.245;exitDx=0;exitDy=0;exitPerimeter=0;" parent="1" target="FhcBZPqyOB3JHqi98k8j-35" edge="1">
          <mxGeometry width="50" height="50" relative="1" as="geometry">
            <mxPoint x="357.4099999999999" y="367.55000000000007" as="sourcePoint" />
            <mxPoint x="402.31" y="340" as="targetPoint" />
            <Array as="points">
              <mxPoint x="367.31" y="350" />
              <mxPoint x="387.31" y="350" />
            </Array>
          </mxGeometry>
        </mxCell>
        <mxCell id="FhcBZPqyOB3JHqi98k8j-39" value="" style="curved=1;endArrow=classic;html=1;rounded=0;entryX=0.5;entryY=0;entryDx=0;entryDy=0;" parent="1" target="FhcBZPqyOB3JHqi98k8j-36" edge="1">
          <mxGeometry width="50" height="50" relative="1" as="geometry">
            <mxPoint x="397.31" y="370" as="sourcePoint" />
            <mxPoint x="442.31" y="370" as="targetPoint" />
            <Array as="points">
              <mxPoint x="407.31" y="350" />
              <mxPoint x="427.31" y="350" />
            </Array>
          </mxGeometry>
        </mxCell>
        <mxCell id="FhcBZPqyOB3JHqi98k8j-40" value="" style="endArrow=none;html=1;rounded=0;endFill=0;startArrow=classic;startFill=1;exitX=0.236;exitY=0.926;exitDx=0;exitDy=0;exitPerimeter=0;" parent="1" source="FhcBZPqyOB3JHqi98k8j-37" edge="1">
          <mxGeometry width="50" height="50" relative="1" as="geometry">
            <mxPoint x="477.31" y="330" as="sourcePoint" />
            <mxPoint x="437.31" y="375" as="targetPoint" />
          </mxGeometry>
        </mxCell>
        <mxCell id="FhcBZPqyOB3JHqi98k8j-41" value="Step 7" style="text;html=1;strokeColor=none;fillColor=none;align=center;verticalAlign=middle;whiteSpace=wrap;rounded=0;" parent="1" vertex="1">
          <mxGeometry x="454.81" y="330" width="45" height="15" as="geometry" />
        </mxCell>
        <mxCell id="FhcBZPqyOB3JHqi98k8j-36" value="" style="ellipse;whiteSpace=wrap;html=1;aspect=fixed;" parent="1" vertex="1">
          <mxGeometry x="432.31" y="370" width="10" height="10" as="geometry" />
        </mxCell>
        <mxCell id="nEcrmQmEwlzkNigICEiU-1" value="" style="endArrow=none;dashed=1;html=1;rounded=0;fillColor=#60a917;strokeColor=#2D7600;" parent="1" source="nEcrmQmEwlzkNigICEiU-3" edge="1">
          <mxGeometry width="50" height="50" relative="1" as="geometry">
            <mxPoint x="120" y="214.83" as="sourcePoint" />
            <mxPoint x="600" y="214.83" as="targetPoint" />
          </mxGeometry>
        </mxCell>
        <mxCell id="nEcrmQmEwlzkNigICEiU-4" value="" style="endArrow=none;dashed=1;html=1;rounded=0;fillColor=#60a917;strokeColor=#2D7600;" parent="1" target="nEcrmQmEwlzkNigICEiU-3" edge="1">
          <mxGeometry width="50" height="50" relative="1" as="geometry">
            <mxPoint x="120" y="214.83" as="sourcePoint" />
            <mxPoint x="600" y="214.83" as="targetPoint" />
          </mxGeometry>
        </mxCell>
        <mxCell id="nEcrmQmEwlzkNigICEiU-3" value="" style="ellipse;whiteSpace=wrap;html=1;aspect=fixed;" parent="1" vertex="1">
          <mxGeometry x="472.31" y="210" width="10" height="10" as="geometry" />
        </mxCell>
        <mxCell id="nEcrmQmEwlzkNigICEiU-5" value="Step 8" style="text;html=1;strokeColor=none;fillColor=none;align=center;verticalAlign=middle;whiteSpace=wrap;rounded=0;" parent="1" vertex="1">
          <mxGeometry x="475.31" y="254.5" width="45" height="15" as="geometry" />
        </mxCell>
        <mxCell id="03ieLu1_suSG6GnbeN9B-1" value="v1.0.0" style="text;html=1;strokeColor=none;fillColor=none;align=center;verticalAlign=middle;whiteSpace=wrap;rounded=0;rotation=-30;" parent="1" vertex="1">
          <mxGeometry x="469.31" y="192" width="45" height="15" as="geometry" />
        </mxCell>
        <mxCell id="5vmJwaiRj2mBz6dOy22q-1" value="" style="ellipse;whiteSpace=wrap;html=1;aspect=fixed;" parent="1" vertex="1">
          <mxGeometry x="512.31" y="290" width="10" height="10" as="geometry" />
        </mxCell>
        <mxCell id="5vmJwaiRj2mBz6dOy22q-2" value="" style="curved=1;endArrow=classic;html=1;rounded=0;entryX=0.398;entryY=-0.016;entryDx=0;entryDy=0;entryPerimeter=0;" parent="1" target="5vmJwaiRj2mBz6dOy22q-1" edge="1">
          <mxGeometry width="50" height="50" relative="1" as="geometry">
            <mxPoint x="477.31" y="290" as="sourcePoint" />
            <mxPoint x="517.31" y="290" as="targetPoint" />
            <Array as="points">
              <mxPoint x="487.31" y="270" />
              <mxPoint x="507.31" y="270" />
            </Array>
          </mxGeometry>
        </mxCell>
        <mxCell id="5vmJwaiRj2mBz6dOy22q-3" value="1.0.1-SNAPSHOT" style="text;html=1;strokeColor=none;fillColor=none;align=center;verticalAlign=middle;whiteSpace=wrap;rounded=0;fontSize=7;rotation=-30;" parent="1" vertex="1">
          <mxGeometry x="516.6600000000001" y="264.55" width="70.8" height="15" as="geometry" />
        </mxCell>
        <mxCell id="DiZ-S6K9O0J3xOJPMpHF-1" value="" style="endArrow=none;html=1;rounded=0;endFill=0;startArrow=classic;startFill=1;entryX=0.55;entryY=1.003;entryDx=0;entryDy=0;exitX=0;exitY=0;exitDx=0;exitDy=0;entryPerimeter=0;" parent="1" source="DiZ-S6K9O0J3xOJPMpHF-2" edge="1">
          <mxGeometry width="50" height="50" relative="1" as="geometry">
            <mxPoint x="577.31" y="340" as="sourcePoint" />
            <mxPoint x="518.31" y="300" as="targetPoint" />
          </mxGeometry>
        </mxCell>
        <mxCell id="DiZ-S6K9O0J3xOJPMpHF-2" value="" style="ellipse;whiteSpace=wrap;html=1;aspect=fixed;" parent="1" vertex="1">
          <mxGeometry x="552.31" y="370" width="10" height="10" as="geometry" />
        </mxCell>
        <mxCell id="DiZ-S6K9O0J3xOJPMpHF-3" value="Step 9" style="text;html=1;strokeColor=none;fillColor=none;align=center;verticalAlign=middle;whiteSpace=wrap;rounded=0;" parent="1" vertex="1">
          <mxGeometry x="538.81" y="330" width="45" height="15" as="geometry" />
        </mxCell>
        <mxCell id="6hOy1c5Wo1XjNrQFyxft-1" value="" style="image;sketch=0;aspect=fixed;html=1;points=[];align=center;fontSize=12;image=img/lib/mscae/Person.svg;" parent="1" vertex="1">
          <mxGeometry x="137.32" y="262.5" width="10.36" height="14" as="geometry" />
        </mxCell>
        <mxCell id="6hOy1c5Wo1XjNrQFyxft-2" value="" style="image;sketch=0;aspect=fixed;html=1;points=[];align=center;fontSize=12;image=img/lib/mscae/Person.svg;" parent="1" vertex="1">
          <mxGeometry x="198" y="321.5" width="10.36" height="14" as="geometry" />
        </mxCell>
        <mxCell id="0-SgvkXSxN-I-1zcTVwH-2" value="" style="image;points=[];aspect=fixed;html=1;align=center;shadow=0;dashed=0;image=img/lib/allied_telesis/computer_and_terminals/Server_Desktop.svg;" parent="1" vertex="1">
          <mxGeometry x="517.31" y="252" width="15.78" height="20" as="geometry" />
        </mxCell>
        <mxCell id="0-SgvkXSxN-I-1zcTVwH-3" value="" style="image;sketch=0;aspect=fixed;html=1;points=[];align=center;fontSize=12;image=img/lib/mscae/Person.svg;" parent="1" vertex="1">
          <mxGeometry x="581.0999999999999" y="330" width="10.36" height="14" as="geometry" />
        </mxCell>
        <mxCell id="Vy9VifHJTtyrVydcVovC-1" value="" style="image;sketch=0;aspect=fixed;html=1;points=[];align=center;fontSize=12;image=img/lib/mscae/Person.svg;" parent="1" vertex="1">
          <mxGeometry x="499.81" y="330" width="10.36" height="14" as="geometry" />
        </mxCell>
        <mxCell id="Vy9VifHJTtyrVydcVovC-2" value="&lt;h1&gt;Step 8&lt;/h1&gt;&lt;p&gt;- After approval of PR, the commit on the MAIN branch will trigger the CI to run the Maven Release Plugin Prepare goal, to remove the *-SNAPSHOT from version, create a TAG in the MAIN branch named after the release version,&amp;nbsp;&lt;span style=&quot;background-color: initial;&quot;&gt;change the version on POM.xml to the next minor version, append the suffix&amp;nbsp;&lt;/span&gt;&lt;span style=&quot;background-color: initial;&quot;&gt;*-SNAPSHOT to it and commit.&lt;/span&gt;&lt;/p&gt;" style="text;html=1;strokeColor=none;fillColor=none;spacing=5;spacingTop=-20;whiteSpace=wrap;overflow=hidden;rounded=0;" parent="1" vertex="1">
          <mxGeometry x="135.61" y="619.5" width="169.22" height="260.5" as="geometry" />
        </mxCell>
        <mxCell id="Vy9VifHJTtyrVydcVovC-3" value="" style="image;sketch=0;aspect=fixed;html=1;points=[];align=center;fontSize=12;image=img/lib/mscae/Person.svg;" parent="1" vertex="1">
          <mxGeometry x="616.25" y="262" width="10.36" height="14" as="geometry" />
        </mxCell>
        <mxCell id="Vy9VifHJTtyrVydcVovC-4" value="" style="image;sketch=0;aspect=fixed;html=1;points=[];align=center;fontSize=12;image=img/lib/mscae/Person.svg;" parent="1" vertex="1">
          <mxGeometry x="616.25" y="288" width="10.36" height="14" as="geometry" />
        </mxCell>
        <mxCell id="Vy9VifHJTtyrVydcVovC-5" value="" style="image;sketch=0;aspect=fixed;html=1;points=[];align=center;fontSize=12;image=img/lib/mscae/Person.svg;" parent="1" vertex="1">
          <mxGeometry x="616.25" y="329" width="10.36" height="14" as="geometry" />
        </mxCell>
        <mxCell id="Vy9VifHJTtyrVydcVovC-6" value="" style="image;sketch=0;aspect=fixed;html=1;points=[];align=center;fontSize=12;image=img/lib/mscae/Person.svg;" parent="1" vertex="1">
          <mxGeometry x="616.25" y="413" width="10.36" height="14" as="geometry" />
        </mxCell>
        <mxCell id="Vy9VifHJTtyrVydcVovC-7" value="" style="image;sketch=0;aspect=fixed;html=1;points=[];align=center;fontSize=12;image=img/lib/mscae/Person.svg;" parent="1" vertex="1">
          <mxGeometry x="616.2500000000001" y="607" width="10.36" height="14" as="geometry" />
        </mxCell>
        <mxCell id="Vy9VifHJTtyrVydcVovC-13" value="" style="image;sketch=0;aspect=fixed;html=1;points=[];align=center;fontSize=12;image=img/lib/mscae/Person.svg;" parent="1" vertex="1">
          <mxGeometry x="349.34000000000015" y="877.5" width="10.36" height="14" as="geometry" />
        </mxCell>
        <mxCell id="Vy9VifHJTtyrVydcVovC-15" value="" style="image;points=[];aspect=fixed;html=1;align=center;shadow=0;dashed=0;image=img/lib/allied_telesis/computer_and_terminals/Server_Desktop.svg;" parent="1" vertex="1">
          <mxGeometry x="120.24999999999996" y="669.5" width="15.78" height="20" as="geometry" />
        </mxCell>
        <mxCell id="Vy9VifHJTtyrVydcVovC-16" value="" style="image;sketch=0;aspect=fixed;html=1;points=[];align=center;fontSize=12;image=img/lib/mscae/Person.svg;" parent="1" vertex="1">
          <mxGeometry x="120.00000000000007" y="942.5" width="10.36" height="14" as="geometry" />
        </mxCell>
        <mxCell id="Vy9VifHJTtyrVydcVovC-17" value="&lt;h1&gt;Step 7&lt;/h1&gt;&lt;p&gt;- Raise PR from DEVELOP branch to MAIN branch&lt;/p&gt;&lt;p&gt;- CI triggers unit testing execution and compilation.&amp;nbsp;&lt;br&gt;&lt;/p&gt;&lt;p&gt;&lt;br&gt;&lt;/p&gt;" style="text;html=1;strokeColor=none;fillColor=none;spacing=5;spacingTop=-20;whiteSpace=wrap;overflow=hidden;rounded=0;" parent="1" vertex="1">
          <mxGeometry x="362.41" y="825.5" width="170.68" height="164.5" as="geometry" />
        </mxCell>
        <mxCell id="ddQQ5UHYENpUPduiLBml-3" value="" style="image;sketch=0;aspect=fixed;html=1;points=[];align=center;fontSize=12;image=img/lib/mscae/Person.svg;" parent="1" vertex="1">
          <mxGeometry x="425.6500000000001" y="331.5" width="6.66" height="9" as="geometry" />
        </mxCell>
        <mxCell id="ddQQ5UHYENpUPduiLBml-4" value="" style="image;points=[];aspect=fixed;html=1;align=center;shadow=0;dashed=0;image=img/lib/allied_telesis/computer_and_terminals/Server_Desktop.svg;" parent="1" vertex="1">
          <mxGeometry x="414.6" y="330.5" width="8.68" height="11" as="geometry" />
        </mxCell>
        <mxCell id="ddQQ5UHYENpUPduiLBml-5" value="" style="endArrow=none;html=1;rounded=0;" parent="1" edge="1">
          <mxGeometry width="50" height="50" relative="1" as="geometry">
            <mxPoint x="422.93000000000006" y="342.5" as="sourcePoint" />
            <mxPoint x="425.93000000000006" y="330.5" as="targetPoint" />
          </mxGeometry>
        </mxCell>
        <mxCell id="ddQQ5UHYENpUPduiLBml-9" value="&lt;h1&gt;Step 9&lt;/h1&gt;&lt;p&gt;- Raise PR from MAIN branch to DEVELOP branch to sync version for next release.&lt;/p&gt;" style="text;html=1;strokeColor=none;fillColor=none;spacing=5;spacingTop=-20;whiteSpace=wrap;overflow=hidden;rounded=0;" parent="1" vertex="1">
          <mxGeometry x="131.86" y="890.5" width="169.22" height="100" as="geometry" />
        </mxCell>
        <mxCell id="ddQQ5UHYENpUPduiLBml-10" value="1.0.0-SNAPSHOT" style="text;html=1;strokeColor=none;fillColor=none;align=center;verticalAlign=middle;whiteSpace=wrap;rounded=0;fontSize=7;rotation=-30;" parent="1" vertex="1">
          <mxGeometry x="153.84" y="269.5" width="70.8" height="15" as="geometry" />
        </mxCell>
        <mxCell id="oFy49Qrh_hXhayf3ksmZ-1" value="1.0.0" style="text;html=1;strokeColor=none;fillColor=none;align=center;verticalAlign=middle;whiteSpace=wrap;rounded=0;rotation=-45;fontSize=7;" parent="1" vertex="1">
          <mxGeometry x="477.31" y="279" width="25" height="15" as="geometry" />
        </mxCell>
        <mxCell id="RtYTChD_3rSf_Z4nVCqW-1" value="feature/xyz&lt;br&gt;branches" style="text;html=1;align=center;verticalAlign=middle;resizable=0;points=[];autosize=1;strokeColor=#001DBC;fillColor=#0050ef;fontColor=#ffffff;" parent="1" vertex="1">
          <mxGeometry x="40" y="440" width="80" height="40" as="geometry" />
        </mxCell>
        <mxCell id="RtYTChD_3rSf_Z4nVCqW-2" value="" style="endArrow=none;dashed=1;html=1;rounded=0;fillColor=#0050ef;strokeColor=#001DBC;" parent="1" edge="1">
          <mxGeometry width="50" height="50" relative="1" as="geometry">
            <mxPoint x="120" y="459.8" as="sourcePoint" />
            <mxPoint x="600" y="460" as="targetPoint" />
          </mxGeometry>
        </mxCell>
        <mxCell id="RtYTChD_3rSf_Z4nVCqW-3" value="" style="endArrow=none;html=1;rounded=0;endFill=0;startArrow=classic;startFill=1;entryX=0.5;entryY=1;entryDx=0;entryDy=0;" parent="1" target="FhcBZPqyOB3JHqi98k8j-16" edge="1">
          <mxGeometry width="50" height="50" relative="1" as="geometry">
            <mxPoint x="237" y="455" as="sourcePoint" />
            <mxPoint x="150" y="410" as="targetPoint" />
          </mxGeometry>
        </mxCell>
        <mxCell id="RtYTChD_3rSf_Z4nVCqW-8" value="" style="curved=1;endArrow=classic;html=1;rounded=0;entryX=0.5;entryY=1;entryDx=0;entryDy=0;" parent="1" edge="1">
          <mxGeometry width="50" height="50" relative="1" as="geometry">
            <mxPoint x="240" y="460" as="sourcePoint" />
            <mxPoint x="280" y="465" as="targetPoint" />
            <Array as="points">
              <mxPoint x="250" y="485" />
              <mxPoint x="270" y="485" />
            </Array>
          </mxGeometry>
        </mxCell>
        <mxCell id="RtYTChD_3rSf_Z4nVCqW-9" value="" style="curved=1;endArrow=classic;html=1;rounded=0;entryX=0.5;entryY=1;entryDx=0;entryDy=0;" parent="1" edge="1">
          <mxGeometry width="50" height="50" relative="1" as="geometry">
            <mxPoint x="280" y="460" as="sourcePoint" />
            <mxPoint x="320" y="465" as="targetPoint" />
            <Array as="points">
              <mxPoint x="290" y="485" />
              <mxPoint x="310" y="485" />
            </Array>
          </mxGeometry>
        </mxCell>
        <mxCell id="RtYTChD_3rSf_Z4nVCqW-10" value="" style="ellipse;whiteSpace=wrap;html=1;aspect=fixed;" parent="1" vertex="1">
          <mxGeometry x="275" y="455" width="10" height="10" as="geometry" />
        </mxCell>
        <mxCell id="RtYTChD_3rSf_Z4nVCqW-4" value="" style="ellipse;whiteSpace=wrap;html=1;aspect=fixed;" parent="1" vertex="1">
          <mxGeometry x="235" y="455" width="10" height="10" as="geometry" />
        </mxCell>
        <mxCell id="RtYTChD_3rSf_Z4nVCqW-11" value="" style="endArrow=none;html=1;rounded=0;endFill=0;startArrow=classic;startFill=1;" parent="1" edge="1">
          <mxGeometry width="50" height="50" relative="1" as="geometry">
            <mxPoint x="354" y="379" as="sourcePoint" />
            <mxPoint x="320" y="459" as="targetPoint" />
          </mxGeometry>
        </mxCell>
        <mxCell id="RtYTChD_3rSf_Z4nVCqW-12" value="" style="ellipse;whiteSpace=wrap;html=1;aspect=fixed;" parent="1" vertex="1">
          <mxGeometry x="352.31" y="370" width="10" height="10" as="geometry" />
        </mxCell>
        <mxCell id="RtYTChD_3rSf_Z4nVCqW-13" value="&lt;h1&gt;Step 3&lt;/h1&gt;&lt;p&gt;- Create the FEATURE/XYZ branch from DEVELOP branch&lt;/p&gt;" style="text;html=1;strokeColor=none;fillColor=none;spacing=5;spacingTop=-20;whiteSpace=wrap;overflow=hidden;rounded=0;" parent="1" vertex="1">
          <mxGeometry x="629.66" y="455" width="170.68" height="95" as="geometry" />
        </mxCell>
        <mxCell id="RtYTChD_3rSf_Z4nVCqW-14" value="" style="image;sketch=0;aspect=fixed;html=1;points=[];align=center;fontSize=12;image=img/lib/mscae/Person.svg;" parent="1" vertex="1">
          <mxGeometry x="616.25" y="508" width="10.36" height="14" as="geometry" />
        </mxCell>
        <mxCell id="RtYTChD_3rSf_Z4nVCqW-15" value="Step 3" style="text;html=1;strokeColor=none;fillColor=none;align=center;verticalAlign=middle;whiteSpace=wrap;rounded=0;" parent="1" vertex="1">
          <mxGeometry x="217.5" y="413" width="45" height="15" as="geometry" />
        </mxCell>
        <mxCell id="RtYTChD_3rSf_Z4nVCqW-16" value="" style="image;sketch=0;aspect=fixed;html=1;points=[];align=center;fontSize=12;image=img/lib/mscae/Person.svg;" parent="1" vertex="1">
          <mxGeometry x="234.82" y="399" width="10.36" height="14" as="geometry" />
        </mxCell>
        <mxCell id="RtYTChD_3rSf_Z4nVCqW-7" value="" style="ellipse;whiteSpace=wrap;html=1;aspect=fixed;" parent="1" vertex="1">
          <mxGeometry x="315" y="455" width="10" height="10" as="geometry" />
        </mxCell>
        <mxCell id="hSn4EkWTQeVIlthm3qZw-1" value="Step 5" style="text;html=1;strokeColor=none;fillColor=none;align=center;verticalAlign=middle;whiteSpace=wrap;rounded=0;" parent="1" vertex="1">
          <mxGeometry x="340.65" y="413" width="45" height="15" as="geometry" />
        </mxCell>
        <mxCell id="hSn4EkWTQeVIlthm3qZw-2" value="" style="image;sketch=0;aspect=fixed;html=1;points=[];align=center;fontSize=12;image=img/lib/mscae/Person.svg;" parent="1" vertex="1">
          <mxGeometry x="396.70000000000005" y="415.5" width="6.66" height="9" as="geometry" />
        </mxCell>
        <mxCell id="hSn4EkWTQeVIlthm3qZw-3" value="" style="image;points=[];aspect=fixed;html=1;align=center;shadow=0;dashed=0;image=img/lib/allied_telesis/computer_and_terminals/Server_Desktop.svg;" parent="1" vertex="1">
          <mxGeometry x="385.65" y="414.5" width="8.68" height="11" as="geometry" />
        </mxCell>
        <mxCell id="hSn4EkWTQeVIlthm3qZw-4" value="" style="endArrow=none;html=1;rounded=0;" parent="1" edge="1">
          <mxGeometry width="50" height="50" relative="1" as="geometry">
            <mxPoint x="393.98" y="426.5" as="sourcePoint" />
            <mxPoint x="396.98" y="414.5" as="targetPoint" />
          </mxGeometry>
        </mxCell>
        <mxCell id="PAz1MLu2Euhngj8n1xBJ-1" value="&lt;h1&gt;Step 5&lt;/h1&gt;&lt;p&gt;&lt;/p&gt;- Raise PR from FEATURE/XYZ branch to DEVELOP branch&lt;p&gt;- CI triggers unit testing execution and compilation and show output on PR.&lt;/p&gt;&lt;p&gt;- On PR closed and merged, trigger deployment to exchange and then to CloudHub on DEV environment.&lt;/p&gt;" style="text;html=1;strokeColor=none;fillColor=none;spacing=5;spacingTop=-20;whiteSpace=wrap;overflow=hidden;rounded=0;" parent="1" vertex="1">
          <mxGeometry x="630" y="689" width="170" height="251" as="geometry" />
        </mxCell>
        <mxCell id="Dxgz9rszbo_4D05CJYHF-1" value="" style="image;sketch=0;aspect=fixed;html=1;points=[];align=center;fontSize=12;image=img/lib/mscae/Person.svg;" parent="1" vertex="1">
          <mxGeometry x="616.9300000000001" y="741" width="10.36" height="14" as="geometry" />
        </mxCell>
        <mxCell id="Dxgz9rszbo_4D05CJYHF-2" value="" style="image;points=[];aspect=fixed;html=1;align=center;shadow=0;dashed=0;image=img/lib/allied_telesis/computer_and_terminals/Server_Desktop.svg;" parent="1" vertex="1">
          <mxGeometry x="614.22" y="792" width="15.78" height="20" as="geometry" />
        </mxCell>
        <mxCell id="K3WMHOtgFFXaqqps3xGb-1" value="&lt;h1&gt;Step 6&lt;/h1&gt;&lt;p&gt;- Developer can deploy to DEV/UAT manually&lt;br&gt;&lt;/p&gt;&lt;p&gt;- Commits to fix/adjust go straight into DEVELOP branch&lt;/p&gt;&lt;p&gt;- CI triggers unit testing execution compilation after the commit.&lt;br&gt;&lt;/p&gt;" style="text;html=1;strokeColor=none;fillColor=none;spacing=5;spacingTop=-20;whiteSpace=wrap;overflow=hidden;rounded=0;" parent="1" vertex="1">
          <mxGeometry x="368.1300000000001" y="619.5" width="170.68" height="200" as="geometry" />
        </mxCell>
        <mxCell id="BD7lznSAvsFT2N_wlbj9-1" value="" style="image;sketch=0;aspect=fixed;html=1;points=[];align=center;fontSize=12;image=img/lib/mscae/Person.svg;" parent="1" vertex="1">
          <mxGeometry x="356.0600000000002" y="712" width="10.36" height="14" as="geometry" />
        </mxCell>
        <mxCell id="BD7lznSAvsFT2N_wlbj9-3" value="" style="image;points=[];aspect=fixed;html=1;align=center;shadow=0;dashed=0;image=img/lib/allied_telesis/computer_and_terminals/Server_Desktop.svg;" parent="1" vertex="1">
          <mxGeometry x="353.35000000000014" y="750" width="15.78" height="20" as="geometry" />
        </mxCell>
        <mxCell id="TovejZj6ZNhs-I5Veo37-1" value="" style="image;sketch=0;aspect=fixed;html=1;points=[];align=center;fontSize=12;image=img/lib/mscae/Person.svg;" parent="1" vertex="1">
          <mxGeometry x="616.2500000000001" y="647" width="10.36" height="14" as="geometry" />
        </mxCell>
        <mxCell id="TovejZj6ZNhs-I5Veo37-2" value="" style="image;sketch=0;aspect=fixed;html=1;points=[];align=center;fontSize=12;image=img/lib/mscae/Person.svg;" parent="1" vertex="1">
          <mxGeometry x="356.0600000000002" y="672.5" width="10.36" height="14" as="geometry" />
        </mxCell>
        <mxCell id="TovejZj6ZNhs-I5Veo37-3" value="" style="image;points=[];aspect=fixed;html=1;align=center;shadow=0;dashed=0;image=img/lib/allied_telesis/computer_and_terminals/Server_Desktop.svg;" parent="1" vertex="1">
          <mxGeometry x="343.92" y="915.5" width="15.78" height="20" as="geometry" />
        </mxCell>
        <mxCell id="ozvgKpE6U1wtc8mPDzG5-1" value="" style="image;sketch=0;aspect=fixed;html=1;points=[];align=center;fontSize=12;image=img/lib/mscae/Person.svg;" vertex="1" parent="1">
          <mxGeometry x="275" y="500" width="10.36" height="14" as="geometry" />
        </mxCell>
        <mxCell id="Q92Z3XEuI8HdzEAgWEK0-1" value="" style="image;points=[];aspect=fixed;html=1;align=center;shadow=0;dashed=0;image=img/lib/allied_telesis/computer_and_terminals/Server_Desktop.svg;" vertex="1" parent="1">
          <mxGeometry x="615" y="847" width="15.78" height="20" as="geometry" />
        </mxCell>
      </root>
    </mxGraphModel>
  </diagram>
  <diagram id="cAJn-cwfC_N8Tn0snRjz" name="New feature in existing API">
    <mxGraphModel dx="1410" dy="804" grid="1" gridSize="10" guides="1" tooltips="1" connect="1" arrows="1" fold="1" page="1" pageScale="1" pageWidth="827" pageHeight="1169" math="0" shadow="0">
      <root>
        <mxCell id="0" />
        <mxCell id="1" parent="0" />
        <mxCell id="mLe1Tz-jWSVHeK9cLwhM-19" value="" style="endArrow=none;html=1;rounded=0;endFill=0;startArrow=classic;startFill=1;exitX=0;exitY=0;exitDx=0;exitDy=0;" parent="1" source="mLe1Tz-jWSVHeK9cLwhM-20" edge="1">
          <mxGeometry width="50" height="50" relative="1" as="geometry">
            <mxPoint x="500" y="340" as="sourcePoint" />
            <mxPoint x="440" y="296" as="targetPoint" />
          </mxGeometry>
        </mxCell>
        <mxCell id="mLe1Tz-jWSVHeK9cLwhM-9" value="" style="endArrow=none;dashed=1;html=1;rounded=0;fillColor=#e3c800;strokeColor=#B09500;" parent="1" source="BBjP0p92KBEhS-hyFqq2-1" target="mLe1Tz-jWSVHeK9cLwhM-8" edge="1">
          <mxGeometry width="50" height="50" relative="1" as="geometry">
            <mxPoint x="120" y="294.93" as="sourcePoint" />
            <mxPoint x="600" y="294.93" as="targetPoint" />
          </mxGeometry>
        </mxCell>
        <mxCell id="dGexSLDNsyLbKqKM4UDD-35" value="" style="endArrow=none;dashed=1;html=1;rounded=0;fillColor=#1ba1e2;strokeColor=#006EAF;" parent="1" edge="1">
          <mxGeometry width="50" height="50" relative="1" as="geometry">
            <mxPoint x="120" y="374.88" as="sourcePoint" />
            <mxPoint x="600" y="375.08" as="targetPoint" />
          </mxGeometry>
        </mxCell>
        <mxCell id="dGexSLDNsyLbKqKM4UDD-1" value="Time" style="shape=flexArrow;endArrow=classic;html=1;rounded=0;width=15.161290322580644;endSize=6.688709677419355;labelBackgroundColor=none;strokeColor=#314354;fontColor=#FFFFFF;fillColor=#647687;" parent="1" edge="1">
          <mxGeometry width="50" height="50" relative="1" as="geometry">
            <mxPoint x="120" y="600" as="sourcePoint" />
            <mxPoint x="600" y="600" as="targetPoint" />
          </mxGeometry>
        </mxCell>
        <mxCell id="dGexSLDNsyLbKqKM4UDD-2" value="tags" style="text;html=1;align=center;verticalAlign=middle;resizable=0;points=[];autosize=1;strokeColor=#2D7600;fillColor=#60a917;fontColor=#ffffff;" parent="1" vertex="1">
          <mxGeometry x="70" y="200" width="50" height="30" as="geometry" />
        </mxCell>
        <mxCell id="dGexSLDNsyLbKqKM4UDD-3" value="main" style="text;html=1;align=center;verticalAlign=middle;resizable=0;points=[];autosize=1;strokeColor=#B09500;fillColor=#e3c800;fontColor=#000000;" parent="1" vertex="1">
          <mxGeometry x="70" y="280" width="50" height="30" as="geometry" />
        </mxCell>
        <mxCell id="dGexSLDNsyLbKqKM4UDD-4" value="develop" style="text;html=1;align=center;verticalAlign=middle;resizable=0;points=[];autosize=1;strokeColor=#006EAF;fillColor=#1ba1e2;fontColor=#ffffff;" parent="1" vertex="1">
          <mxGeometry x="49" y="360" width="70" height="30" as="geometry" />
        </mxCell>
        <mxCell id="dGexSLDNsyLbKqKM4UDD-5" value="feature/xyz&lt;br&gt;branches" style="text;html=1;align=center;verticalAlign=middle;resizable=0;points=[];autosize=1;strokeColor=#001DBC;fillColor=#0050ef;fontColor=#ffffff;" parent="1" vertex="1">
          <mxGeometry x="40" y="440" width="80" height="40" as="geometry" />
        </mxCell>
        <mxCell id="dGexSLDNsyLbKqKM4UDD-6" value="" style="endArrow=none;html=1;rounded=0;" parent="1" edge="1">
          <mxGeometry width="50" height="50" relative="1" as="geometry">
            <mxPoint x="120" y="200" as="sourcePoint" />
            <mxPoint x="120" y="590" as="targetPoint" />
          </mxGeometry>
        </mxCell>
        <mxCell id="dGexSLDNsyLbKqKM4UDD-8" value="" style="endArrow=none;html=1;rounded=0;endFill=0;startArrow=classic;startFill=1;exitX=0.223;exitY=-0.058;exitDx=0;exitDy=0;exitPerimeter=0;" parent="1" source="dGexSLDNsyLbKqKM4UDD-17" edge="1">
          <mxGeometry width="50" height="50" relative="1" as="geometry">
            <mxPoint x="200" y="375" as="sourcePoint" />
            <mxPoint x="177" y="375" as="targetPoint" />
          </mxGeometry>
        </mxCell>
        <mxCell id="dGexSLDNsyLbKqKM4UDD-14" value="" style="ellipse;whiteSpace=wrap;html=1;aspect=fixed;" parent="1" vertex="1">
          <mxGeometry x="172" y="370" width="10" height="10" as="geometry" />
        </mxCell>
        <mxCell id="dGexSLDNsyLbKqKM4UDD-9" value="Step 1" style="text;html=1;strokeColor=none;fillColor=none;align=center;verticalAlign=middle;whiteSpace=wrap;rounded=0;" parent="1" vertex="1">
          <mxGeometry x="190" y="410" width="45" height="15" as="geometry" />
        </mxCell>
        <mxCell id="dGexSLDNsyLbKqKM4UDD-10" value="" style="endArrow=none;dashed=1;html=1;rounded=0;fillColor=#e3c800;strokeColor=#B09500;" parent="1" source="mLe1Tz-jWSVHeK9cLwhM-8" edge="1">
          <mxGeometry width="50" height="50" relative="1" as="geometry">
            <mxPoint x="120" y="294.93" as="sourcePoint" />
            <mxPoint x="600" y="294.93" as="targetPoint" />
          </mxGeometry>
        </mxCell>
        <mxCell id="dGexSLDNsyLbKqKM4UDD-12" value="" style="endArrow=none;html=1;rounded=0;" parent="1" edge="1">
          <mxGeometry width="50" height="50" relative="1" as="geometry">
            <mxPoint x="600" y="210" as="sourcePoint" />
            <mxPoint x="600" y="600" as="targetPoint" />
          </mxGeometry>
        </mxCell>
        <mxCell id="dGexSLDNsyLbKqKM4UDD-16" value="" style="curved=1;endArrow=classic;html=1;rounded=0;entryX=0.5;entryY=1;entryDx=0;entryDy=0;" parent="1" target="dGexSLDNsyLbKqKM4UDD-19" edge="1">
          <mxGeometry width="50" height="50" relative="1" as="geometry">
            <mxPoint x="200" y="460" as="sourcePoint" />
            <mxPoint x="380" y="515" as="targetPoint" />
            <Array as="points">
              <mxPoint x="210" y="485" />
              <mxPoint x="230" y="485" />
            </Array>
          </mxGeometry>
        </mxCell>
        <mxCell id="dGexSLDNsyLbKqKM4UDD-18" value="" style="curved=1;endArrow=classic;html=1;rounded=0;entryX=0.5;entryY=1;entryDx=0;entryDy=0;" parent="1" edge="1">
          <mxGeometry width="50" height="50" relative="1" as="geometry">
            <mxPoint x="240" y="460" as="sourcePoint" />
            <mxPoint x="280" y="465" as="targetPoint" />
            <Array as="points">
              <mxPoint x="250" y="485" />
              <mxPoint x="270" y="485" />
            </Array>
          </mxGeometry>
        </mxCell>
        <mxCell id="dGexSLDNsyLbKqKM4UDD-20" value="Step 2" style="text;html=1;strokeColor=none;fillColor=none;align=center;verticalAlign=middle;whiteSpace=wrap;rounded=0;" parent="1" vertex="1">
          <mxGeometry x="212" y="486" width="45" height="15" as="geometry" />
        </mxCell>
        <mxCell id="dGexSLDNsyLbKqKM4UDD-24" value="Step 3" style="text;html=1;strokeColor=none;fillColor=none;align=center;verticalAlign=middle;whiteSpace=wrap;rounded=0;" parent="1" vertex="1">
          <mxGeometry x="297.5" y="410" width="45" height="15" as="geometry" />
        </mxCell>
        <mxCell id="dGexSLDNsyLbKqKM4UDD-26" value="" style="ellipse;whiteSpace=wrap;html=1;aspect=fixed;" parent="1" vertex="1">
          <mxGeometry x="315" y="370" width="10" height="10" as="geometry" />
        </mxCell>
        <mxCell id="dGexSLDNsyLbKqKM4UDD-28" value="" style="ellipse;whiteSpace=wrap;html=1;aspect=fixed;" parent="1" vertex="1">
          <mxGeometry x="395" y="290" width="10" height="10" as="geometry" />
        </mxCell>
        <mxCell id="dGexSLDNsyLbKqKM4UDD-30" value="" style="curved=1;endArrow=classic;html=1;rounded=0;entryX=0.5;entryY=0;entryDx=0;entryDy=0;" parent="1" target="dGexSLDNsyLbKqKM4UDD-27" edge="1">
          <mxGeometry width="50" height="50" relative="1" as="geometry">
            <mxPoint x="320" y="370" as="sourcePoint" />
            <mxPoint x="365" y="370" as="targetPoint" />
            <Array as="points">
              <mxPoint x="330" y="350" />
              <mxPoint x="350" y="350" />
            </Array>
          </mxGeometry>
        </mxCell>
        <mxCell id="dGexSLDNsyLbKqKM4UDD-31" value="" style="endArrow=none;html=1;rounded=0;endFill=0;startArrow=classic;startFill=1;exitX=0.236;exitY=0.926;exitDx=0;exitDy=0;exitPerimeter=0;" parent="1" source="dGexSLDNsyLbKqKM4UDD-28" edge="1">
          <mxGeometry width="50" height="50" relative="1" as="geometry">
            <mxPoint x="400" y="330" as="sourcePoint" />
            <mxPoint x="360" y="375" as="targetPoint" />
          </mxGeometry>
        </mxCell>
        <mxCell id="dGexSLDNsyLbKqKM4UDD-32" value="Step 4" style="text;html=1;strokeColor=none;fillColor=none;align=center;verticalAlign=middle;whiteSpace=wrap;rounded=0;" parent="1" vertex="1">
          <mxGeometry x="311" y="334" width="45" height="15" as="geometry" />
        </mxCell>
        <mxCell id="dGexSLDNsyLbKqKM4UDD-34" value="" style="endArrow=none;dashed=1;html=1;rounded=0;fillColor=#0050ef;strokeColor=#001DBC;" parent="1" edge="1">
          <mxGeometry width="50" height="50" relative="1" as="geometry">
            <mxPoint x="120" y="459.8" as="sourcePoint" />
            <mxPoint x="600" y="460" as="targetPoint" />
          </mxGeometry>
        </mxCell>
        <mxCell id="dGexSLDNsyLbKqKM4UDD-27" value="" style="ellipse;whiteSpace=wrap;html=1;aspect=fixed;" parent="1" vertex="1">
          <mxGeometry x="355" y="370" width="10" height="10" as="geometry" />
        </mxCell>
        <mxCell id="dGexSLDNsyLbKqKM4UDD-19" value="" style="ellipse;whiteSpace=wrap;html=1;aspect=fixed;" parent="1" vertex="1">
          <mxGeometry x="235" y="455" width="10" height="10" as="geometry" />
        </mxCell>
        <mxCell id="dGexSLDNsyLbKqKM4UDD-17" value="" style="ellipse;whiteSpace=wrap;html=1;aspect=fixed;" parent="1" vertex="1">
          <mxGeometry x="195" y="455" width="10" height="10" as="geometry" />
        </mxCell>
        <mxCell id="mLe1Tz-jWSVHeK9cLwhM-1" value="" style="endArrow=none;html=1;rounded=0;endFill=0;startArrow=classic;startFill=1;exitX=0;exitY=1;exitDx=0;exitDy=0;" parent="1" source="dGexSLDNsyLbKqKM4UDD-26" edge="1">
          <mxGeometry width="50" height="50" relative="1" as="geometry">
            <mxPoint x="317" y="384" as="sourcePoint" />
            <mxPoint x="280" y="460" as="targetPoint" />
          </mxGeometry>
        </mxCell>
        <mxCell id="dGexSLDNsyLbKqKM4UDD-15" value="" style="ellipse;whiteSpace=wrap;html=1;aspect=fixed;" parent="1" vertex="1">
          <mxGeometry x="275" y="455" width="10" height="10" as="geometry" />
        </mxCell>
        <mxCell id="mLe1Tz-jWSVHeK9cLwhM-2" value="Step 5" style="text;html=1;strokeColor=none;fillColor=none;align=center;verticalAlign=middle;whiteSpace=wrap;rounded=0;" parent="1" vertex="1">
          <mxGeometry x="374" y="334" width="45" height="15" as="geometry" />
        </mxCell>
        <mxCell id="mLe1Tz-jWSVHeK9cLwhM-3" value="" style="endArrow=none;dashed=1;html=1;rounded=0;fillColor=#60a917;strokeColor=#2D7600;" parent="1" source="mLe1Tz-jWSVHeK9cLwhM-4" edge="1">
          <mxGeometry width="50" height="50" relative="1" as="geometry">
            <mxPoint x="120" y="214.76" as="sourcePoint" />
            <mxPoint x="600" y="214.76" as="targetPoint" />
          </mxGeometry>
        </mxCell>
        <mxCell id="mLe1Tz-jWSVHeK9cLwhM-5" value="" style="endArrow=none;dashed=1;html=1;rounded=0;fillColor=#60a917;strokeColor=#2D7600;" parent="1" target="mLe1Tz-jWSVHeK9cLwhM-4" edge="1">
          <mxGeometry width="50" height="50" relative="1" as="geometry">
            <mxPoint x="120" y="214.76" as="sourcePoint" />
            <mxPoint x="600" y="214.76" as="targetPoint" />
          </mxGeometry>
        </mxCell>
        <mxCell id="mLe1Tz-jWSVHeK9cLwhM-4" value="" style="ellipse;whiteSpace=wrap;html=1;aspect=fixed;" parent="1" vertex="1">
          <mxGeometry x="395" y="210" width="10" height="10" as="geometry" />
        </mxCell>
        <mxCell id="mLe1Tz-jWSVHeK9cLwhM-6" value="v1.0.1" style="text;html=1;strokeColor=none;fillColor=none;align=center;verticalAlign=middle;whiteSpace=wrap;rounded=0;rotation=-30;" parent="1" vertex="1">
          <mxGeometry x="393" y="192" width="45" height="15" as="geometry" />
        </mxCell>
        <mxCell id="mLe1Tz-jWSVHeK9cLwhM-7" value="" style="endArrow=none;html=1;rounded=0;endFill=0;startArrow=classic;startFill=1;exitX=0.5;exitY=1;exitDx=0;exitDy=0;entryX=0.5;entryY=0;entryDx=0;entryDy=0;" parent="1" source="mLe1Tz-jWSVHeK9cLwhM-4" target="dGexSLDNsyLbKqKM4UDD-28" edge="1">
          <mxGeometry width="50" height="50" relative="1" as="geometry">
            <mxPoint x="407" y="309" as="sourcePoint" />
            <mxPoint x="370" y="385" as="targetPoint" />
          </mxGeometry>
        </mxCell>
        <mxCell id="mLe1Tz-jWSVHeK9cLwhM-8" value="" style="ellipse;whiteSpace=wrap;html=1;aspect=fixed;" parent="1" vertex="1">
          <mxGeometry x="435" y="290" width="10" height="10" as="geometry" />
        </mxCell>
        <mxCell id="mLe1Tz-jWSVHeK9cLwhM-10" value="" style="curved=1;endArrow=classic;html=1;rounded=0;entryX=0.398;entryY=-0.016;entryDx=0;entryDy=0;entryPerimeter=0;" parent="1" target="mLe1Tz-jWSVHeK9cLwhM-8" edge="1">
          <mxGeometry width="50" height="50" relative="1" as="geometry">
            <mxPoint x="400" y="290" as="sourcePoint" />
            <mxPoint x="440" y="290" as="targetPoint" />
            <Array as="points">
              <mxPoint x="410" y="270" />
              <mxPoint x="430" y="270" />
            </Array>
          </mxGeometry>
        </mxCell>
        <mxCell id="mLe1Tz-jWSVHeK9cLwhM-11" value="Step 6" style="text;html=1;strokeColor=none;fillColor=none;align=center;verticalAlign=middle;whiteSpace=wrap;rounded=0;" parent="1" vertex="1">
          <mxGeometry x="400" y="250" width="45" height="15" as="geometry" />
        </mxCell>
        <mxCell id="mLe1Tz-jWSVHeK9cLwhM-13" value="" style="endArrow=none;dashed=1;html=1;rounded=0;fillColor=#e3c800;strokeColor=#B09500;" parent="1" target="mLe1Tz-jWSVHeK9cLwhM-12" edge="1">
          <mxGeometry width="50" height="50" relative="1" as="geometry">
            <mxPoint x="120" y="294.93" as="sourcePoint" />
            <mxPoint x="435" y="295" as="targetPoint" />
          </mxGeometry>
        </mxCell>
        <mxCell id="mLe1Tz-jWSVHeK9cLwhM-12" value="" style="ellipse;whiteSpace=wrap;html=1;aspect=fixed;" parent="1" vertex="1">
          <mxGeometry x="133" y="290" width="10" height="10" as="geometry" />
        </mxCell>
        <mxCell id="mLe1Tz-jWSVHeK9cLwhM-14" value="" style="endArrow=none;html=1;rounded=0;endFill=0;startArrow=classic;startFill=1;exitX=0.5;exitY=0;exitDx=0;exitDy=0;entryX=0.5;entryY=1;entryDx=0;entryDy=0;dashed=1;" parent="1" source="dGexSLDNsyLbKqKM4UDD-14" target="BBjP0p92KBEhS-hyFqq2-1" edge="1">
          <mxGeometry width="50" height="50" relative="1" as="geometry">
            <mxPoint x="410" y="230" as="sourcePoint" />
            <mxPoint x="410" y="300" as="targetPoint" />
          </mxGeometry>
        </mxCell>
        <mxCell id="mLe1Tz-jWSVHeK9cLwhM-15" value="" style="ellipse;whiteSpace=wrap;html=1;aspect=fixed;" parent="1" vertex="1">
          <mxGeometry x="133" y="209" width="10" height="10" as="geometry" />
        </mxCell>
        <mxCell id="mLe1Tz-jWSVHeK9cLwhM-16" value="" style="endArrow=none;html=1;rounded=0;endFill=0;startArrow=none;startFill=0;exitX=0.5;exitY=0;exitDx=0;exitDy=0;entryX=0.5;entryY=1;entryDx=0;entryDy=0;dashed=1;" parent="1" source="mLe1Tz-jWSVHeK9cLwhM-12" target="mLe1Tz-jWSVHeK9cLwhM-15" edge="1">
          <mxGeometry width="50" height="50" relative="1" as="geometry">
            <mxPoint x="410" y="230" as="sourcePoint" />
            <mxPoint x="410" y="300" as="targetPoint" />
          </mxGeometry>
        </mxCell>
        <mxCell id="mLe1Tz-jWSVHeK9cLwhM-17" value="v1.0.0" style="text;html=1;strokeColor=none;fillColor=none;align=center;verticalAlign=middle;whiteSpace=wrap;rounded=0;rotation=-30;" parent="1" vertex="1">
          <mxGeometry x="130" y="190" width="45" height="15" as="geometry" />
        </mxCell>
        <mxCell id="mLe1Tz-jWSVHeK9cLwhM-18" value="1.0.2-SNAPSHOT" style="text;html=1;strokeColor=none;fillColor=none;align=center;verticalAlign=middle;whiteSpace=wrap;rounded=0;fontSize=7;rotation=-30;" parent="1" vertex="1">
          <mxGeometry x="435.56" y="269" width="70.8" height="15" as="geometry" />
        </mxCell>
        <mxCell id="mLe1Tz-jWSVHeK9cLwhM-20" value="" style="ellipse;whiteSpace=wrap;html=1;aspect=fixed;" parent="1" vertex="1">
          <mxGeometry x="475" y="370" width="10" height="10" as="geometry" />
        </mxCell>
        <mxCell id="mLe1Tz-jWSVHeK9cLwhM-23" value="Step 7" style="text;html=1;strokeColor=none;fillColor=none;align=center;verticalAlign=middle;whiteSpace=wrap;rounded=0;" parent="1" vertex="1">
          <mxGeometry x="457.5" y="334" width="45" height="15" as="geometry" />
        </mxCell>
        <mxCell id="bLcN8uVZl_7xnt8br-Nv-5" value="" style="image;sketch=0;aspect=fixed;html=1;points=[];align=center;fontSize=12;image=img/lib/mscae/Person.svg;" parent="1" vertex="1">
          <mxGeometry x="231" y="410" width="10.36" height="14" as="geometry" />
        </mxCell>
        <mxCell id="bLcN8uVZl_7xnt8br-Nv-11" value="" style="image;sketch=0;aspect=fixed;html=1;points=[];align=center;fontSize=12;image=img/lib/mscae/Person.svg;" parent="1" vertex="1">
          <mxGeometry x="498" y="334" width="10.36" height="14" as="geometry" />
        </mxCell>
        <mxCell id="bLcN8uVZl_7xnt8br-Nv-12" value="" style="image;points=[];aspect=fixed;html=1;align=center;shadow=0;dashed=0;image=img/lib/allied_telesis/computer_and_terminals/Server_Desktop.svg;" parent="1" vertex="1">
          <mxGeometry x="441.72" y="247.5" width="15.78" height="20" as="geometry" />
        </mxCell>
        <mxCell id="OXfMVgo-bKoFeGR6O4aJ-1" value="&lt;h1&gt;Step 1&lt;/h1&gt;&lt;p&gt;- Create the FEATURE/XYZ branch from DEVELOP branch&lt;br&gt;&lt;/p&gt;" style="text;html=1;strokeColor=none;fillColor=none;spacing=5;spacingTop=-20;whiteSpace=wrap;overflow=hidden;rounded=0;" parent="1" vertex="1">
          <mxGeometry x="630.29" y="210" width="169.71" height="100" as="geometry" />
        </mxCell>
        <mxCell id="OXfMVgo-bKoFeGR6O4aJ-2" value="&lt;h1&gt;Step 2&lt;/h1&gt;&lt;p&gt;- Commits containing the implementation and unit tests&amp;nbsp;&lt;br&gt;&lt;/p&gt;&lt;p&gt;- Developer can deploy to DEV manually&lt;br&gt;&lt;/p&gt;" style="text;html=1;strokeColor=none;fillColor=none;spacing=5;spacingTop=-20;whiteSpace=wrap;overflow=hidden;rounded=0;" parent="1" vertex="1">
          <mxGeometry x="629.32" y="320" width="170.68" height="130" as="geometry" />
        </mxCell>
        <mxCell id="OXfMVgo-bKoFeGR6O4aJ-3" value="&lt;h1&gt;Step 3&lt;/h1&gt;&lt;p&gt;&lt;/p&gt;- Raise PR from FEATURE/XYZ branch to DEVELOP branch&lt;p&gt;-CI triggers unit testing execution and compilation and show output on PR.&lt;br&gt;&lt;/p&gt;&lt;p&gt;- On PR closed and merged, trigger deployment to exchange and then to CloudHub on DEV environment.&lt;br&gt;&lt;/p&gt;" style="text;html=1;strokeColor=none;fillColor=none;spacing=5;spacingTop=-20;whiteSpace=wrap;overflow=hidden;rounded=0;" parent="1" vertex="1">
          <mxGeometry x="630" y="459" width="170" height="251" as="geometry" />
        </mxCell>
        <mxCell id="OXfMVgo-bKoFeGR6O4aJ-4" value="&lt;h1&gt;Step 4&lt;/h1&gt;&lt;p&gt;- Developer can deploy to DEV/UAT manually&lt;/p&gt;&lt;p&gt;- Commits to fix/adjusts goes straight into DEVELOP&lt;/p&gt;&lt;p&gt;- CI triggers unit testing execution and compilation and show output on PR.&lt;br&gt;&lt;/p&gt;" style="text;html=1;strokeColor=none;fillColor=none;spacing=5;spacingTop=-20;whiteSpace=wrap;overflow=hidden;rounded=0;" parent="1" vertex="1">
          <mxGeometry x="429.32000000000005" y="619" width="170.68" height="200" as="geometry" />
        </mxCell>
        <mxCell id="OXfMVgo-bKoFeGR6O4aJ-5" value="" style="image;sketch=0;aspect=fixed;html=1;points=[];align=center;fontSize=12;image=img/lib/mscae/Person.svg;" parent="1" vertex="1">
          <mxGeometry x="616.25" y="262" width="10.36" height="14" as="geometry" />
        </mxCell>
        <mxCell id="OXfMVgo-bKoFeGR6O4aJ-8" value="" style="image;sketch=0;aspect=fixed;html=1;points=[];align=center;fontSize=12;image=img/lib/mscae/Person.svg;" parent="1" vertex="1">
          <mxGeometry x="616.25" y="373" width="10.36" height="14" as="geometry" />
        </mxCell>
        <mxCell id="OXfMVgo-bKoFeGR6O4aJ-9" value="" style="image;sketch=0;aspect=fixed;html=1;points=[];align=center;fontSize=12;image=img/lib/mscae/Person.svg;" parent="1" vertex="1">
          <mxGeometry x="616.2500000000001" y="511" width="10.36" height="14" as="geometry" />
        </mxCell>
        <mxCell id="OXfMVgo-bKoFeGR6O4aJ-10" value="" style="image;points=[];aspect=fixed;html=1;align=center;shadow=0;dashed=0;image=img/lib/allied_telesis/computer_and_terminals/Server_Desktop.svg;" parent="1" vertex="1">
          <mxGeometry x="613.5400000000001" y="562" width="15.78" height="20" as="geometry" />
        </mxCell>
        <mxCell id="OXfMVgo-bKoFeGR6O4aJ-11" value="" style="image;sketch=0;aspect=fixed;html=1;points=[];align=center;fontSize=12;image=img/lib/mscae/Person.svg;" parent="1" vertex="1">
          <mxGeometry x="416.2500000000001" y="712" width="10.36" height="14" as="geometry" />
        </mxCell>
        <mxCell id="BBjP0p92KBEhS-hyFqq2-2" value="" style="endArrow=none;dashed=1;html=1;rounded=0;fillColor=#e3c800;strokeColor=#B09500;" parent="1" source="mLe1Tz-jWSVHeK9cLwhM-12" target="BBjP0p92KBEhS-hyFqq2-1" edge="1">
          <mxGeometry width="50" height="50" relative="1" as="geometry">
            <mxPoint x="150" y="295" as="sourcePoint" />
            <mxPoint x="435" y="295" as="targetPoint" />
          </mxGeometry>
        </mxCell>
        <mxCell id="BBjP0p92KBEhS-hyFqq2-1" value="" style="ellipse;whiteSpace=wrap;html=1;aspect=fixed;" parent="1" vertex="1">
          <mxGeometry x="172" y="290" width="10" height="10" as="geometry" />
        </mxCell>
        <mxCell id="BBjP0p92KBEhS-hyFqq2-4" value="" style="curved=1;endArrow=none;html=1;rounded=0;entryX=0.5;entryY=0;entryDx=0;entryDy=0;exitX=0.5;exitY=0;exitDx=0;exitDy=0;dashed=1;endFill=0;" parent="1" source="mLe1Tz-jWSVHeK9cLwhM-12" edge="1">
          <mxGeometry width="50" height="50" relative="1" as="geometry">
            <mxPoint x="137" y="290" as="sourcePoint" />
            <mxPoint x="177" y="290" as="targetPoint" />
            <Array as="points">
              <mxPoint x="147" y="270" />
              <mxPoint x="167" y="270" />
            </Array>
          </mxGeometry>
        </mxCell>
        <mxCell id="BBjP0p92KBEhS-hyFqq2-5" value="1.0.1-SNAPSHOT" style="text;html=1;strokeColor=none;fillColor=none;align=center;verticalAlign=middle;whiteSpace=wrap;rounded=0;rotation=-30;fontSize=7;" parent="1" vertex="1">
          <mxGeometry x="173.36" y="269" width="68" height="15" as="geometry" />
        </mxCell>
        <mxCell id="BBjP0p92KBEhS-hyFqq2-6" value="" style="image;points=[];aspect=fixed;html=1;align=center;shadow=0;dashed=0;image=img/lib/allied_telesis/computer_and_terminals/Server_Desktop.svg;" parent="1" vertex="1">
          <mxGeometry x="413.5400000000001" y="750" width="15.78" height="20" as="geometry" />
        </mxCell>
        <mxCell id="BBjP0p92KBEhS-hyFqq2-8" value="" style="image;sketch=0;aspect=fixed;html=1;points=[];align=center;fontSize=12;image=img/lib/mscae/Person.svg;" parent="1" vertex="1">
          <mxGeometry x="353.55" y="412.5" width="6.66" height="9" as="geometry" />
        </mxCell>
        <mxCell id="BBjP0p92KBEhS-hyFqq2-9" value="" style="image;points=[];aspect=fixed;html=1;align=center;shadow=0;dashed=0;image=img/lib/allied_telesis/computer_and_terminals/Server_Desktop.svg;" parent="1" vertex="1">
          <mxGeometry x="342.49999999999994" y="411.5" width="8.68" height="11" as="geometry" />
        </mxCell>
        <mxCell id="BBjP0p92KBEhS-hyFqq2-10" value="" style="endArrow=none;html=1;rounded=0;" parent="1" edge="1">
          <mxGeometry width="50" height="50" relative="1" as="geometry">
            <mxPoint x="350.83" y="423.5" as="sourcePoint" />
            <mxPoint x="353.83" y="411.5" as="targetPoint" />
          </mxGeometry>
        </mxCell>
        <mxCell id="4z12R46S5kYNJpjM7Y-n-1" value="&lt;h1&gt;Step 6&lt;/h1&gt;&lt;p&gt;&lt;/p&gt;- After approval of PR, the commit on the MAIN branch will trigger the CI to run the Maven Release Plugin Prepare goal, to remove the *-SNAPSHOT from version, create a TAG in the MAIN branch named after the release version,&amp;nbsp;change the version on POM.xml to the next minor version, append the suffix&amp;nbsp;&lt;span style=&quot;background-color: initial;&quot;&gt;*-SNAPSHOT to it and commit.&lt;/span&gt;" style="text;html=1;strokeColor=none;fillColor=none;spacing=5;spacingTop=-20;whiteSpace=wrap;overflow=hidden;rounded=0;" parent="1" vertex="1">
          <mxGeometry x="223.78" y="619" width="169.22" height="247" as="geometry" />
        </mxCell>
        <mxCell id="4z12R46S5kYNJpjM7Y-n-2" value="" style="image;sketch=0;aspect=fixed;html=1;points=[];align=center;fontSize=12;image=img/lib/mscae/Person.svg;" parent="1" vertex="1">
          <mxGeometry x="416.2500000000001" y="862" width="10.36" height="14" as="geometry" />
        </mxCell>
        <mxCell id="4z12R46S5kYNJpjM7Y-n-4" value="" style="image;points=[];aspect=fixed;html=1;align=center;shadow=0;dashed=0;image=img/lib/allied_telesis/computer_and_terminals/Server_Desktop.svg;" parent="1" vertex="1">
          <mxGeometry x="208.42" y="669" width="15.78" height="20" as="geometry" />
        </mxCell>
        <mxCell id="4z12R46S5kYNJpjM7Y-n-5" value="" style="image;sketch=0;aspect=fixed;html=1;points=[];align=center;fontSize=12;image=img/lib/mscae/Person.svg;" parent="1" vertex="1">
          <mxGeometry x="213.92000000000004" y="914" width="10.36" height="14" as="geometry" />
        </mxCell>
        <mxCell id="4z12R46S5kYNJpjM7Y-n-6" value="&lt;h1&gt;Step 5&lt;/h1&gt;&lt;p&gt;- Raise PR from DEVELOP branch to MAIN branch&lt;/p&gt;&lt;p&gt;&lt;span style=&quot;background-color: initial;&quot;&gt;- CI triggers unit testing execution and compilation.&amp;nbsp;&lt;/span&gt;&lt;br&gt;&lt;/p&gt;&lt;p&gt;&lt;br&gt;&lt;/p&gt;" style="text;html=1;strokeColor=none;fillColor=none;spacing=5;spacingTop=-20;whiteSpace=wrap;overflow=hidden;rounded=0;" parent="1" vertex="1">
          <mxGeometry x="429.31999999999994" y="810" width="170.68" height="130" as="geometry" />
        </mxCell>
        <mxCell id="4z12R46S5kYNJpjM7Y-n-7" value="&lt;h1&gt;Step 7&lt;/h1&gt;&lt;h1&gt;&lt;p style=&quot;font-size: 12px; font-weight: 400;&quot;&gt;- Raise PR from MAIN branch to DEVELOP branch to sync version for next release.&lt;/p&gt;&lt;/h1&gt;" style="text;html=1;strokeColor=none;fillColor=none;spacing=5;spacingTop=-20;whiteSpace=wrap;overflow=hidden;rounded=0;" parent="1" vertex="1">
          <mxGeometry x="225.78" y="862" width="169.22" height="100" as="geometry" />
        </mxCell>
        <mxCell id="4z12R46S5kYNJpjM7Y-n-8" value="" style="image;sketch=0;aspect=fixed;html=1;points=[];align=center;fontSize=12;image=img/lib/mscae/Person.svg;" parent="1" vertex="1">
          <mxGeometry x="417.32" y="334.5" width="10.36" height="14" as="geometry" />
        </mxCell>
        <mxCell id="4z12R46S5kYNJpjM7Y-n-9" value="" style="image;sketch=0;aspect=fixed;html=1;points=[];align=center;fontSize=12;image=img/lib/mscae/Person.svg;" parent="1" vertex="1">
          <mxGeometry x="268.05000000000007" y="488.5" width="6.66" height="9" as="geometry" />
        </mxCell>
        <mxCell id="4z12R46S5kYNJpjM7Y-n-10" value="" style="image;points=[];aspect=fixed;html=1;align=center;shadow=0;dashed=0;image=img/lib/allied_telesis/computer_and_terminals/Server_Desktop.svg;" parent="1" vertex="1">
          <mxGeometry x="257" y="487.5" width="8.68" height="11" as="geometry" />
        </mxCell>
        <mxCell id="4z12R46S5kYNJpjM7Y-n-11" value="" style="endArrow=none;html=1;rounded=0;" parent="1" edge="1">
          <mxGeometry width="50" height="50" relative="1" as="geometry">
            <mxPoint x="265.33000000000004" y="499.5" as="sourcePoint" />
            <mxPoint x="268.33000000000004" y="487.5" as="targetPoint" />
          </mxGeometry>
        </mxCell>
        <mxCell id="0cvDcqls-X6eHiKjNZb2-1" value="" style="image;sketch=0;aspect=fixed;html=1;points=[];align=center;fontSize=12;image=img/lib/mscae/Person.svg;" parent="1" vertex="1">
          <mxGeometry x="364.05" y="337" width="6.66" height="9" as="geometry" />
        </mxCell>
        <mxCell id="0cvDcqls-X6eHiKjNZb2-2" value="" style="image;points=[];aspect=fixed;html=1;align=center;shadow=0;dashed=0;image=img/lib/allied_telesis/computer_and_terminals/Server_Desktop.svg;" parent="1" vertex="1">
          <mxGeometry x="352.99999999999994" y="336" width="8.68" height="11" as="geometry" />
        </mxCell>
        <mxCell id="0cvDcqls-X6eHiKjNZb2-3" value="" style="endArrow=none;html=1;rounded=0;" parent="1" edge="1">
          <mxGeometry width="50" height="50" relative="1" as="geometry">
            <mxPoint x="361.33" y="348" as="sourcePoint" />
            <mxPoint x="364.33" y="336" as="targetPoint" />
          </mxGeometry>
        </mxCell>
        <mxCell id="PPeVbgFt_RhAregffIWH-1" value="1.0.1" style="text;html=1;strokeColor=none;fillColor=none;align=center;verticalAlign=middle;whiteSpace=wrap;rounded=0;rotation=-45;fontSize=7;" parent="1" vertex="1">
          <mxGeometry x="400" y="279" width="25" height="15" as="geometry" />
        </mxCell>
        <mxCell id="88kiHInbqTPe76ADuOMw-1" value="" style="image;sketch=0;aspect=fixed;html=1;points=[];align=center;fontSize=12;image=img/lib/mscae/Person.svg;" vertex="1" parent="1">
          <mxGeometry x="616.25" y="412.5" width="10.36" height="14" as="geometry" />
        </mxCell>
        <mxCell id="Spv9hro86jePvd5OImK1-1" value="" style="image;points=[];aspect=fixed;html=1;align=center;shadow=0;dashed=0;image=img/lib/allied_telesis/computer_and_terminals/Server_Desktop.svg;" vertex="1" parent="1">
          <mxGeometry x="613.5100000000001" y="619" width="15.78" height="20" as="geometry" />
        </mxCell>
        <mxCell id="oyk_eIMp6RMaiZnFQ-Iv-1" value="" style="image;sketch=0;aspect=fixed;html=1;points=[];align=center;fontSize=12;image=img/lib/mscae/Person.svg;" vertex="1" parent="1">
          <mxGeometry x="416.22000000000014" y="672" width="10.36" height="14" as="geometry" />
        </mxCell>
        <mxCell id="5zizfrhb1TwS_gpO5_wk-1" value="" style="image;points=[];aspect=fixed;html=1;align=center;shadow=0;dashed=0;image=img/lib/allied_telesis/computer_and_terminals/Server_Desktop.svg;" vertex="1" parent="1">
          <mxGeometry x="414.53999999999996" y="900" width="15.78" height="20" as="geometry" />
        </mxCell>
      </root>
    </mxGraphModel>
  </diagram>
  <diagram name="Hotfix in existing API" id="ekRwx7Z4Jxs4Dp1Uz65I">
    <mxGraphModel dx="1703" dy="972" grid="1" gridSize="10" guides="1" tooltips="1" connect="1" arrows="1" fold="1" page="1" pageScale="1" pageWidth="827" pageHeight="1169" math="0" shadow="0">
      <root>
        <mxCell id="KCaYtTaPfws-i5a6BMBj-0" />
        <mxCell id="KCaYtTaPfws-i5a6BMBj-1" parent="KCaYtTaPfws-i5a6BMBj-0" />
        <mxCell id="KCaYtTaPfws-i5a6BMBj-2" value="Time" style="shape=flexArrow;endArrow=classic;html=1;rounded=0;width=15.161290322580644;endSize=6.688709677419355;fillColor=#647687;strokeColor=#314354;labelBackgroundColor=none;fontColor=#FFFFFF;" parent="KCaYtTaPfws-i5a6BMBj-1" edge="1">
          <mxGeometry width="50" height="50" relative="1" as="geometry">
            <mxPoint x="120" y="600" as="sourcePoint" />
            <mxPoint x="600" y="600" as="targetPoint" />
          </mxGeometry>
        </mxCell>
        <mxCell id="KCaYtTaPfws-i5a6BMBj-3" value="tags" style="text;html=1;align=center;verticalAlign=middle;resizable=0;points=[];autosize=1;strokeColor=#2D7600;fillColor=#60a917;fontColor=#ffffff;" parent="KCaYtTaPfws-i5a6BMBj-1" vertex="1">
          <mxGeometry x="69" y="200" width="50" height="30" as="geometry" />
        </mxCell>
        <mxCell id="KCaYtTaPfws-i5a6BMBj-4" value="hotfix/bug-1234" style="text;html=1;align=center;verticalAlign=middle;resizable=0;points=[];autosize=1;strokeColor=#B20000;fillColor=#e51400;fontColor=#ffffff;" parent="KCaYtTaPfws-i5a6BMBj-1" vertex="1">
          <mxGeometry x="10" y="280" width="110" height="30" as="geometry" />
        </mxCell>
        <mxCell id="KCaYtTaPfws-i5a6BMBj-5" value="main" style="text;html=1;align=center;verticalAlign=middle;resizable=0;points=[];autosize=1;strokeColor=#B09500;fillColor=#e3c800;fontColor=#000000;" parent="KCaYtTaPfws-i5a6BMBj-1" vertex="1">
          <mxGeometry x="69" y="360" width="50" height="30" as="geometry" />
        </mxCell>
        <mxCell id="KCaYtTaPfws-i5a6BMBj-7" value="" style="endArrow=none;html=1;rounded=0;" parent="KCaYtTaPfws-i5a6BMBj-1" edge="1">
          <mxGeometry width="50" height="50" relative="1" as="geometry">
            <mxPoint x="120" y="200" as="sourcePoint" />
            <mxPoint x="120" y="590" as="targetPoint" />
          </mxGeometry>
        </mxCell>
        <mxCell id="KCaYtTaPfws-i5a6BMBj-9" value="" style="endArrow=none;html=1;rounded=0;endFill=0;startArrow=none;startFill=0;exitX=0.5;exitY=1;exitDx=0;exitDy=0;entryX=0.5;entryY=0;entryDx=0;entryDy=0;dashed=1;" parent="KCaYtTaPfws-i5a6BMBj-1" source="u8KzUf-rlUg7iLQhAcp8-2" target="KCaYtTaPfws-i5a6BMBj-15" edge="1">
          <mxGeometry width="50" height="50" relative="1" as="geometry">
            <mxPoint x="260" y="320" as="sourcePoint" />
            <mxPoint x="250" y="340" as="targetPoint" />
          </mxGeometry>
        </mxCell>
        <mxCell id="KCaYtTaPfws-i5a6BMBj-10" value="Step 1" style="text;html=1;strokeColor=none;fillColor=none;align=center;verticalAlign=middle;whiteSpace=wrap;rounded=0;" parent="KCaYtTaPfws-i5a6BMBj-1" vertex="1">
          <mxGeometry x="177.5" y="250" width="45" height="15" as="geometry" />
        </mxCell>
        <mxCell id="KCaYtTaPfws-i5a6BMBj-11" value="" style="endArrow=none;dashed=1;html=1;rounded=0;fillColor=#e51400;strokeColor=#B20000;" parent="KCaYtTaPfws-i5a6BMBj-1" source="KCaYtTaPfws-i5a6BMBj-18" edge="1">
          <mxGeometry width="50" height="50" relative="1" as="geometry">
            <mxPoint x="120" y="294.93" as="sourcePoint" />
            <mxPoint x="600" y="294.93" as="targetPoint" />
          </mxGeometry>
        </mxCell>
        <mxCell id="KCaYtTaPfws-i5a6BMBj-13" value="" style="endArrow=none;html=1;rounded=0;" parent="KCaYtTaPfws-i5a6BMBj-1" edge="1">
          <mxGeometry width="50" height="50" relative="1" as="geometry">
            <mxPoint x="600" y="210" as="sourcePoint" />
            <mxPoint x="600" y="600" as="targetPoint" />
          </mxGeometry>
        </mxCell>
        <mxCell id="KCaYtTaPfws-i5a6BMBj-14" value="" style="endArrow=none;dashed=1;html=1;rounded=0;fillColor=#e3c800;strokeColor=#B09500;" parent="KCaYtTaPfws-i5a6BMBj-1" source="KCaYtTaPfws-i5a6BMBj-15" edge="1">
          <mxGeometry width="50" height="50" relative="1" as="geometry">
            <mxPoint x="120" y="374.93" as="sourcePoint" />
            <mxPoint x="600" y="375" as="targetPoint" />
          </mxGeometry>
        </mxCell>
        <mxCell id="KCaYtTaPfws-i5a6BMBj-21" value="Step 2" style="text;html=1;strokeColor=none;fillColor=none;align=center;verticalAlign=middle;whiteSpace=wrap;rounded=0;" parent="KCaYtTaPfws-i5a6BMBj-1" vertex="1">
          <mxGeometry x="217.5" y="323.47" width="45" height="15" as="geometry" />
        </mxCell>
        <mxCell id="KCaYtTaPfws-i5a6BMBj-25" value="Step 3" style="text;html=1;strokeColor=none;fillColor=none;align=center;verticalAlign=middle;whiteSpace=wrap;rounded=0;" parent="KCaYtTaPfws-i5a6BMBj-1" vertex="1">
          <mxGeometry x="265" y="350" width="45" height="15" as="geometry" />
        </mxCell>
        <mxCell id="KCaYtTaPfws-i5a6BMBj-27" value="" style="ellipse;whiteSpace=wrap;html=1;aspect=fixed;" parent="KCaYtTaPfws-i5a6BMBj-1" vertex="1">
          <mxGeometry x="315" y="370" width="10" height="10" as="geometry" />
        </mxCell>
        <mxCell id="KCaYtTaPfws-i5a6BMBj-30" value="" style="curved=1;endArrow=classic;html=1;rounded=0;entryX=0.5;entryY=0;entryDx=0;entryDy=0;" parent="KCaYtTaPfws-i5a6BMBj-1" target="KCaYtTaPfws-i5a6BMBj-34" edge="1">
          <mxGeometry width="50" height="50" relative="1" as="geometry">
            <mxPoint x="320" y="370" as="sourcePoint" />
            <mxPoint x="365" y="370" as="targetPoint" />
            <Array as="points">
              <mxPoint x="330" y="350" />
              <mxPoint x="350" y="350" />
            </Array>
          </mxGeometry>
        </mxCell>
        <mxCell id="KCaYtTaPfws-i5a6BMBj-31" value="" style="endArrow=none;html=1;rounded=0;endFill=0;startArrow=classic;startFill=1;exitX=0.249;exitY=0.141;exitDx=0;exitDy=0;exitPerimeter=0;" parent="KCaYtTaPfws-i5a6BMBj-1" source="KCaYtTaPfws-i5a6BMBj-28" edge="1">
          <mxGeometry width="50" height="50" relative="1" as="geometry">
            <mxPoint x="400" y="330" as="sourcePoint" />
            <mxPoint x="360" y="375" as="targetPoint" />
          </mxGeometry>
        </mxCell>
        <mxCell id="KCaYtTaPfws-i5a6BMBj-32" value="Step 4" style="text;html=1;strokeColor=none;fillColor=none;align=center;verticalAlign=middle;whiteSpace=wrap;rounded=0;" parent="KCaYtTaPfws-i5a6BMBj-1" vertex="1">
          <mxGeometry x="321" y="332.5" width="45" height="15" as="geometry" />
        </mxCell>
        <mxCell id="KCaYtTaPfws-i5a6BMBj-34" value="" style="ellipse;whiteSpace=wrap;html=1;aspect=fixed;" parent="KCaYtTaPfws-i5a6BMBj-1" vertex="1">
          <mxGeometry x="355" y="370" width="10" height="10" as="geometry" />
        </mxCell>
        <mxCell id="QexpQzIZAewGokTOtNWS-0" value="" style="endArrow=none;dashed=1;html=1;rounded=0;fillColor=#60a917;strokeColor=#2D7600;" parent="KCaYtTaPfws-i5a6BMBj-1" edge="1">
          <mxGeometry width="50" height="50" relative="1" as="geometry">
            <mxPoint x="120" y="214.76" as="sourcePoint" />
            <mxPoint x="600" y="214.76" as="targetPoint" />
          </mxGeometry>
        </mxCell>
        <mxCell id="u8KzUf-rlUg7iLQhAcp8-0" value="" style="endArrow=none;dashed=1;html=1;rounded=0;fillColor=#e3c800;strokeColor=#B09500;" parent="KCaYtTaPfws-i5a6BMBj-1" target="KCaYtTaPfws-i5a6BMBj-15" edge="1">
          <mxGeometry width="50" height="50" relative="1" as="geometry">
            <mxPoint x="120" y="374.93" as="sourcePoint" />
            <mxPoint x="235" y="375" as="targetPoint" />
          </mxGeometry>
        </mxCell>
        <mxCell id="KCaYtTaPfws-i5a6BMBj-15" value="" style="ellipse;whiteSpace=wrap;html=1;aspect=fixed;" parent="KCaYtTaPfws-i5a6BMBj-1" vertex="1">
          <mxGeometry x="155" y="370" width="10" height="10" as="geometry" />
        </mxCell>
        <mxCell id="u8KzUf-rlUg7iLQhAcp8-1" value="" style="endArrow=none;dashed=1;html=1;rounded=0;fillColor=#e51400;strokeColor=#B20000;" parent="KCaYtTaPfws-i5a6BMBj-1" target="KCaYtTaPfws-i5a6BMBj-18" edge="1">
          <mxGeometry width="50" height="50" relative="1" as="geometry">
            <mxPoint x="120" y="294.93" as="sourcePoint" />
            <mxPoint x="600" y="294.93" as="targetPoint" />
          </mxGeometry>
        </mxCell>
        <mxCell id="u8KzUf-rlUg7iLQhAcp8-2" value="" style="ellipse;whiteSpace=wrap;html=1;aspect=fixed;" parent="KCaYtTaPfws-i5a6BMBj-1" vertex="1">
          <mxGeometry x="155" y="210" width="10" height="10" as="geometry" />
        </mxCell>
        <mxCell id="u8KzUf-rlUg7iLQhAcp8-3" value="" style="endArrow=none;html=1;rounded=0;endFill=0;startArrow=classic;startFill=1;exitX=0.297;exitY=-0.008;exitDx=0;exitDy=0;entryX=0.5;entryY=1;entryDx=0;entryDy=0;exitPerimeter=0;" parent="KCaYtTaPfws-i5a6BMBj-1" source="KCaYtTaPfws-i5a6BMBj-18" target="u8KzUf-rlUg7iLQhAcp8-2" edge="1">
          <mxGeometry width="50" height="50" relative="1" as="geometry">
            <mxPoint x="170" y="230" as="sourcePoint" />
            <mxPoint x="170" y="380" as="targetPoint" />
          </mxGeometry>
        </mxCell>
        <mxCell id="u8KzUf-rlUg7iLQhAcp8-5" value="" style="curved=1;endArrow=classic;html=1;rounded=0;entryX=0.5;entryY=1;entryDx=0;entryDy=0;" parent="KCaYtTaPfws-i5a6BMBj-1" edge="1">
          <mxGeometry width="50" height="50" relative="1" as="geometry">
            <mxPoint x="200" y="295" as="sourcePoint" />
            <mxPoint x="240" y="300" as="targetPoint" />
            <Array as="points">
              <mxPoint x="210" y="320" />
              <mxPoint x="230" y="320" />
            </Array>
          </mxGeometry>
        </mxCell>
        <mxCell id="KCaYtTaPfws-i5a6BMBj-18" value="" style="ellipse;whiteSpace=wrap;html=1;aspect=fixed;" parent="KCaYtTaPfws-i5a6BMBj-1" vertex="1">
          <mxGeometry x="195" y="290" width="10" height="10" as="geometry" />
        </mxCell>
        <mxCell id="u8KzUf-rlUg7iLQhAcp8-7" value="" style="curved=1;endArrow=classic;html=1;rounded=0;entryX=0.5;entryY=1;entryDx=0;entryDy=0;" parent="KCaYtTaPfws-i5a6BMBj-1" edge="1">
          <mxGeometry width="50" height="50" relative="1" as="geometry">
            <mxPoint x="240" y="295" as="sourcePoint" />
            <mxPoint x="280" y="300" as="targetPoint" />
            <Array as="points">
              <mxPoint x="250" y="320" />
              <mxPoint x="270" y="320" />
            </Array>
          </mxGeometry>
        </mxCell>
        <mxCell id="u8KzUf-rlUg7iLQhAcp8-8" value="" style="endArrow=none;html=1;rounded=0;endFill=0;startArrow=classic;startFill=1;exitX=0.371;exitY=0.007;exitDx=0;exitDy=0;exitPerimeter=0;" parent="KCaYtTaPfws-i5a6BMBj-1" source="KCaYtTaPfws-i5a6BMBj-27" edge="1">
          <mxGeometry width="50" height="50" relative="1" as="geometry">
            <mxPoint x="407" y="309" as="sourcePoint" />
            <mxPoint x="280" y="295" as="targetPoint" />
          </mxGeometry>
        </mxCell>
        <mxCell id="u8KzUf-rlUg7iLQhAcp8-6" value="" style="ellipse;whiteSpace=wrap;html=1;aspect=fixed;" parent="KCaYtTaPfws-i5a6BMBj-1" vertex="1">
          <mxGeometry x="275" y="290" width="10" height="10" as="geometry" />
        </mxCell>
        <mxCell id="u8KzUf-rlUg7iLQhAcp8-9" value="Step 5" style="text;html=1;strokeColor=none;fillColor=none;align=center;verticalAlign=middle;whiteSpace=wrap;rounded=0;" parent="KCaYtTaPfws-i5a6BMBj-1" vertex="1">
          <mxGeometry x="369" y="400" width="45" height="15" as="geometry" />
        </mxCell>
        <mxCell id="u8KzUf-rlUg7iLQhAcp8-10" value="1.0.3-SNAPSHOT" style="text;html=1;strokeColor=none;fillColor=none;align=center;verticalAlign=middle;whiteSpace=wrap;rounded=0;fontSize=7;rotation=-30;" parent="KCaYtTaPfws-i5a6BMBj-1" vertex="1">
          <mxGeometry x="198" y="267" width="64" height="15" as="geometry" />
        </mxCell>
        <mxCell id="u8KzUf-rlUg7iLQhAcp8-11" value="v1.0.2" style="text;html=1;strokeColor=none;fillColor=none;align=center;verticalAlign=middle;whiteSpace=wrap;rounded=0;fontSize=7;rotation=-45;" parent="KCaYtTaPfws-i5a6BMBj-1" vertex="1">
          <mxGeometry x="158.5" y="195" width="19" height="15" as="geometry" />
        </mxCell>
        <mxCell id="7uY_AHColU2bMzf3O50p-0" value="develop" style="text;html=1;align=center;verticalAlign=middle;resizable=0;points=[];autosize=1;strokeColor=#006EAF;fillColor=#1ba1e2;fontColor=#ffffff;" parent="KCaYtTaPfws-i5a6BMBj-1" vertex="1">
          <mxGeometry x="49" y="450" width="70" height="30" as="geometry" />
        </mxCell>
        <mxCell id="7uY_AHColU2bMzf3O50p-1" value="" style="endArrow=none;dashed=1;html=1;rounded=0;fillColor=#1ba1e2;strokeColor=#006EAF;" parent="KCaYtTaPfws-i5a6BMBj-1" source="KCaYtTaPfws-i5a6BMBj-28" edge="1">
          <mxGeometry width="50" height="50" relative="1" as="geometry">
            <mxPoint x="121" y="464.83" as="sourcePoint" />
            <mxPoint x="601" y="464.83" as="targetPoint" />
          </mxGeometry>
        </mxCell>
        <mxCell id="7uY_AHColU2bMzf3O50p-2" value="" style="endArrow=none;dashed=1;html=1;rounded=0;fillColor=#1ba1e2;strokeColor=#006EAF;" parent="KCaYtTaPfws-i5a6BMBj-1" target="KCaYtTaPfws-i5a6BMBj-28" edge="1">
          <mxGeometry width="50" height="50" relative="1" as="geometry">
            <mxPoint x="121" y="464.83" as="sourcePoint" />
            <mxPoint x="601" y="464.83" as="targetPoint" />
          </mxGeometry>
        </mxCell>
        <mxCell id="KCaYtTaPfws-i5a6BMBj-28" value="" style="ellipse;whiteSpace=wrap;html=1;aspect=fixed;" parent="KCaYtTaPfws-i5a6BMBj-1" vertex="1">
          <mxGeometry x="395" y="460" width="10" height="10" as="geometry" />
        </mxCell>
        <mxCell id="7uY_AHColU2bMzf3O50p-3" value="" style="endArrow=none;html=1;rounded=0;endFill=0;startArrow=classic;startFill=1;" parent="KCaYtTaPfws-i5a6BMBj-1" edge="1">
          <mxGeometry width="50" height="50" relative="1" as="geometry">
            <mxPoint x="320" y="220" as="sourcePoint" />
            <mxPoint x="320" y="370" as="targetPoint" />
          </mxGeometry>
        </mxCell>
        <mxCell id="7uY_AHColU2bMzf3O50p-5" value="" style="ellipse;whiteSpace=wrap;html=1;aspect=fixed;" parent="KCaYtTaPfws-i5a6BMBj-1" vertex="1">
          <mxGeometry x="315" y="210" width="10" height="10" as="geometry" />
        </mxCell>
        <mxCell id="7uY_AHColU2bMzf3O50p-6" value="v1.0.3" style="text;html=1;strokeColor=none;fillColor=none;align=center;verticalAlign=middle;whiteSpace=wrap;rounded=0;fontSize=7;rotation=-45;" parent="KCaYtTaPfws-i5a6BMBj-1" vertex="1">
          <mxGeometry x="318" y="195" width="19" height="15" as="geometry" />
        </mxCell>
        <mxCell id="7uY_AHColU2bMzf3O50p-7" value="v1.0.3" style="text;html=1;strokeColor=none;fillColor=none;align=center;verticalAlign=middle;whiteSpace=wrap;rounded=0;fontSize=7;rotation=-45;" parent="KCaYtTaPfws-i5a6BMBj-1" vertex="1">
          <mxGeometry x="321" y="356" width="19" height="15" as="geometry" />
        </mxCell>
        <mxCell id="7uY_AHColU2bMzf3O50p-8" value="v1.0.4-SNAPSHOT" style="text;html=1;strokeColor=none;fillColor=none;align=center;verticalAlign=middle;whiteSpace=wrap;rounded=0;fontSize=7;rotation=-45;" parent="KCaYtTaPfws-i5a6BMBj-1" vertex="1">
          <mxGeometry x="352.53" y="337.97" width="70" height="15" as="geometry" />
        </mxCell>
        <mxCell id="u8KzUf-rlUg7iLQhAcp8-4" value="" style="ellipse;whiteSpace=wrap;html=1;aspect=fixed;" parent="KCaYtTaPfws-i5a6BMBj-1" vertex="1">
          <mxGeometry x="235" y="290" width="10" height="10" as="geometry" />
        </mxCell>
        <mxCell id="Lrgpr5DEjoa6tGgg1VE5-0" value="" style="image;sketch=0;aspect=fixed;html=1;points=[];align=center;fontSize=12;image=img/lib/mscae/Person.svg;" parent="KCaYtTaPfws-i5a6BMBj-1" vertex="1">
          <mxGeometry x="220" y="250" width="10.36" height="14" as="geometry" />
        </mxCell>
        <mxCell id="Lrgpr5DEjoa6tGgg1VE5-1" value="" style="image;sketch=0;aspect=fixed;html=1;points=[];align=center;fontSize=12;image=img/lib/mscae/Person.svg;" parent="KCaYtTaPfws-i5a6BMBj-1" vertex="1">
          <mxGeometry x="264.64" y="323.47" width="10.36" height="14" as="geometry" />
        </mxCell>
        <mxCell id="Lrgpr5DEjoa6tGgg1VE5-2" value="" style="image;sketch=0;aspect=fixed;html=1;points=[];align=center;fontSize=12;image=img/lib/mscae/Person.svg;" parent="KCaYtTaPfws-i5a6BMBj-1" vertex="1">
          <mxGeometry x="254.64" y="350" width="10.36" height="14" as="geometry" />
        </mxCell>
        <mxCell id="Lrgpr5DEjoa6tGgg1VE5-3" value="" style="image;sketch=0;aspect=fixed;html=1;points=[];align=center;fontSize=12;image=img/lib/mscae/Person.svg;" parent="KCaYtTaPfws-i5a6BMBj-1" vertex="1">
          <mxGeometry x="412.17" y="400" width="10.36" height="14" as="geometry" />
        </mxCell>
        <mxCell id="a6g550W7RgDaWpkFAB2--0" value="" style="image;points=[];aspect=fixed;html=1;align=center;shadow=0;dashed=0;image=img/lib/allied_telesis/computer_and_terminals/Server_Desktop.svg;" parent="KCaYtTaPfws-i5a6BMBj-1" vertex="1">
          <mxGeometry x="362" y="330" width="15.78" height="20" as="geometry" />
        </mxCell>
        <mxCell id="W5-lTb19WmtSZLt6e7gY-0" value="&lt;h1&gt;Step 3&lt;/h1&gt;&lt;p&gt;&lt;/p&gt;- Raise PR from HOTFIX/BUG-1234 branch to MAIN branch&lt;p&gt;&lt;/p&gt;- CI triggers unit testing execution and compilation." style="text;html=1;strokeColor=none;fillColor=none;spacing=5;spacingTop=-20;whiteSpace=wrap;overflow=hidden;rounded=0;" parent="KCaYtTaPfws-i5a6BMBj-1" vertex="1">
          <mxGeometry x="629.32" y="666" width="170.68" height="144" as="geometry" />
        </mxCell>
        <mxCell id="W5-lTb19WmtSZLt6e7gY-1" value="" style="image;sketch=0;aspect=fixed;html=1;points=[];align=center;fontSize=12;image=img/lib/mscae/Person.svg;" parent="KCaYtTaPfws-i5a6BMBj-1" vertex="1">
          <mxGeometry x="616.2500000000001" y="719" width="10.36" height="14" as="geometry" />
        </mxCell>
        <mxCell id="W5-lTb19WmtSZLt6e7gY-2" value="" style="image;points=[];aspect=fixed;html=1;align=center;shadow=0;dashed=0;image=img/lib/allied_telesis/computer_and_terminals/Server_Desktop.svg;" parent="KCaYtTaPfws-i5a6BMBj-1" vertex="1">
          <mxGeometry x="613.5400000000001" y="770" width="15.78" height="20" as="geometry" />
        </mxCell>
        <mxCell id="e74ms_iUQcxN_djx9MFn-0" value="&lt;h1&gt;Step 1&lt;/h1&gt;&lt;p&gt;- Checkout MAIN branch at the CURRENTLY DEPLOYED version TAG.&lt;/p&gt;&lt;p&gt;- Create HOTFIX/BUG-1234 branch from MAIN branch on one specific TAG checked out.&lt;/p&gt;- Update the version in the POM.XML for the HOTFIX/BUG-1234 branch to the next minor version, with the suffix &quot;*-SNAPSHOT&quot; appended." style="text;html=1;strokeColor=none;fillColor=none;spacing=5;spacingTop=-20;whiteSpace=wrap;overflow=hidden;rounded=0;align=left;" parent="KCaYtTaPfws-i5a6BMBj-1" vertex="1">
          <mxGeometry x="630.29" y="210" width="169.71" height="250" as="geometry" />
        </mxCell>
        <mxCell id="e74ms_iUQcxN_djx9MFn-2" value="&lt;h1&gt;Step 2&lt;/h1&gt;&lt;h1&gt;&lt;p style=&quot;font-size: 12px; font-weight: 400;&quot;&gt;- Commits containing the implementation and unit tests&amp;nbsp;&lt;br&gt;&lt;/p&gt;&lt;p style=&quot;font-size: 12px; font-weight: 400;&quot;&gt;- Developer can deploy to DEV/UAT manually&lt;/p&gt;&lt;p style=&quot;font-size: 12px; font-weight: 400;&quot;&gt;- CI triggers unit testing execution and compilation and show output on PR.&lt;br&gt;&lt;/p&gt;&lt;/h1&gt;" style="text;html=1;strokeColor=none;fillColor=none;spacing=5;spacingTop=-20;whiteSpace=wrap;overflow=hidden;rounded=0;" parent="KCaYtTaPfws-i5a6BMBj-1" vertex="1">
          <mxGeometry x="630" y="480" width="170" height="180" as="geometry" />
        </mxCell>
        <mxCell id="e74ms_iUQcxN_djx9MFn-3" value="" style="image;sketch=0;aspect=fixed;html=1;points=[];align=center;fontSize=12;image=img/lib/mscae/Person.svg;" parent="KCaYtTaPfws-i5a6BMBj-1" vertex="1">
          <mxGeometry x="616.25" y="262" width="10.36" height="14" as="geometry" />
        </mxCell>
        <mxCell id="e74ms_iUQcxN_djx9MFn-4" value="" style="image;sketch=0;aspect=fixed;html=1;points=[];align=center;fontSize=12;image=img/lib/mscae/Person.svg;" parent="KCaYtTaPfws-i5a6BMBj-1" vertex="1">
          <mxGeometry x="616.25" y="288" width="10.36" height="14" as="geometry" />
        </mxCell>
        <mxCell id="e74ms_iUQcxN_djx9MFn-5" value="" style="image;sketch=0;aspect=fixed;html=1;points=[];align=center;fontSize=12;image=img/lib/mscae/Person.svg;" parent="KCaYtTaPfws-i5a6BMBj-1" vertex="1">
          <mxGeometry x="616.25" y="329" width="10.36" height="14" as="geometry" />
        </mxCell>
        <mxCell id="e74ms_iUQcxN_djx9MFn-6" value="" style="image;sketch=0;aspect=fixed;html=1;points=[];align=center;fontSize=12;image=img/lib/mscae/Person.svg;" parent="KCaYtTaPfws-i5a6BMBj-1" vertex="1">
          <mxGeometry x="616.25" y="371.97" width="10.36" height="14" as="geometry" />
        </mxCell>
        <mxCell id="e74ms_iUQcxN_djx9MFn-7" value="" style="image;sketch=0;aspect=fixed;html=1;points=[];align=center;fontSize=12;image=img/lib/mscae/Person.svg;" parent="KCaYtTaPfws-i5a6BMBj-1" vertex="1">
          <mxGeometry x="616.2500000000001" y="532" width="10.36" height="14" as="geometry" />
        </mxCell>
        <mxCell id="e74ms_iUQcxN_djx9MFn-8" value="" style="image;points=[];aspect=fixed;html=1;align=center;shadow=0;dashed=0;image=img/lib/allied_telesis/computer_and_terminals/Server_Desktop.svg;" parent="KCaYtTaPfws-i5a6BMBj-1" vertex="1">
          <mxGeometry x="613.5400000000001" y="612" width="15.78" height="20" as="geometry" />
        </mxCell>
        <mxCell id="Qd3b8nFZz7_OavrQxIIZ-0" value="&lt;h1&gt;Step 4&lt;/h1&gt;&lt;p&gt;&lt;/p&gt;- After approval of PR, the commit on the MAIN branch will trigger the CI to run the Maven Release Plugin Prepare goal, to remove the *-SNAPSHOT from version, create a TAG in the MAIN branch named after the release version,&amp;nbsp;change the version on POM.xml to the next minor version, append the suffix&amp;nbsp;*-SNAPSHOT to it and commit." style="text;html=1;strokeColor=none;fillColor=none;spacing=5;spacingTop=-20;whiteSpace=wrap;overflow=hidden;rounded=0;" parent="KCaYtTaPfws-i5a6BMBj-1" vertex="1">
          <mxGeometry x="420.36" y="615" width="169.22" height="245" as="geometry" />
        </mxCell>
        <mxCell id="Qd3b8nFZz7_OavrQxIIZ-3" value="" style="image;points=[];aspect=fixed;html=1;align=center;shadow=0;dashed=0;image=img/lib/allied_telesis/computer_and_terminals/Server_Desktop.svg;" parent="KCaYtTaPfws-i5a6BMBj-1" vertex="1">
          <mxGeometry x="405" y="665" width="15.78" height="20" as="geometry" />
        </mxCell>
        <mxCell id="Qd3b8nFZz7_OavrQxIIZ-4" value="" style="image;sketch=0;aspect=fixed;html=1;points=[];align=center;fontSize=12;image=img/lib/mscae/Person.svg;" parent="KCaYtTaPfws-i5a6BMBj-1" vertex="1">
          <mxGeometry x="216.00000000000006" y="667" width="10.36" height="14" as="geometry" />
        </mxCell>
        <mxCell id="Qd3b8nFZz7_OavrQxIIZ-6" value="&lt;h1&gt;Step 5&lt;/h1&gt;&lt;p&gt;- Raise PR from MAIN branch to DEVELOP branch to sync version for next release.&lt;/p&gt;" style="text;html=1;strokeColor=none;fillColor=none;spacing=5;spacingTop=-20;whiteSpace=wrap;overflow=hidden;rounded=0;" parent="KCaYtTaPfws-i5a6BMBj-1" vertex="1">
          <mxGeometry x="227.86" y="615" width="169.22" height="100" as="geometry" />
        </mxCell>
        <mxCell id="WYGj6mh-17uMyqnPVXsk-0" value="" style="image;sketch=0;aspect=fixed;html=1;points=[];align=center;fontSize=12;image=img/lib/mscae/Person.svg;" vertex="1" parent="KCaYtTaPfws-i5a6BMBj-1">
          <mxGeometry x="616.0000000000001" y="573" width="10.36" height="14" as="geometry" />
        </mxCell>
      </root>
    </mxGraphModel>
  </diagram>
  <diagram id="LP_GLbNreBNC607lBwxw" name="Resources">
    <mxGraphModel dx="2044" dy="1166" grid="1" gridSize="10" guides="1" tooltips="1" connect="1" arrows="1" fold="1" page="1" pageScale="1" pageWidth="827" pageHeight="1169" math="0" shadow="0">
      <root>
        <mxCell id="0" />
        <mxCell id="1" parent="0" />
      </root>
    </mxGraphModel>
  </diagram>
</mxfile>
